<svg width="current" height="current" viewBox="0 0 19 20" fill="currentColor" xmlns="http://www.w3.org/2000/svg">
<path fill-rule="evenodd" clip-rule="evenodd" d="M2.31125 6.75C2.31125 4.95979 3.02241 3.2429 4.28828 1.97703C5.55415 0.711159 7.27104 0 9.06125 0C10.8515 0 12.5684 0.711159 13.8342 1.97703C15.1001 3.2429 15.8113 4.95979 15.8113 6.75V7.5C15.8113 9.623 16.6113 11.557 17.9293 13.02C18.0114 13.111 18.0699 13.2207 18.0998 13.3396C18.1297 13.4584 18.13 13.5828 18.1007 13.7018C18.0714 13.8208 18.0133 13.9308 17.9317 14.0222C17.85 14.1136 17.7472 14.1835 17.6323 14.226C16.0883 14.796 14.4723 15.216 12.8013 15.469C12.8389 15.9831 12.7701 16.4995 12.5992 16.9859C12.4283 17.4722 12.1589 17.9181 11.808 18.2957C11.457 18.6733 11.0319 18.9745 10.5593 19.1804C10.0867 19.3864 9.57677 19.4927 9.06125 19.4927C8.54574 19.4927 8.03576 19.3864 7.56316 19.1804C7.09057 18.9745 6.66552 18.6733 6.31455 18.2957C5.96357 17.9181 5.69423 17.4722 5.52332 16.9859C5.35242 16.4995 5.28363 15.9831 5.32125 15.469C3.6729 15.2192 2.05424 14.8024 0.490252 14.225C0.375386 14.1826 0.272649 14.1127 0.191014 14.0215C0.109379 13.9302 0.0513287 13.8203 0.0219335 13.7015C-0.00746178 13.5826 -0.00730817 13.4584 0.022381 13.3396C0.0520701 13.2208 0.110392 13.1111 0.192252 13.02C1.55906 11.5067 2.31433 9.53919 2.31125 7.5V6.75ZM6.81325 15.65C6.80046 15.9532 6.84913 16.2558 6.95634 16.5397C7.06354 16.8236 7.22707 17.0829 7.43707 17.3019C7.64708 17.521 7.89923 17.6953 8.17835 17.8144C8.45747 17.9335 8.75779 17.9948 9.06125 17.9948C9.36471 17.9948 9.66504 17.9335 9.94416 17.8144C10.2233 17.6953 10.4754 17.521 10.6854 17.3019C10.8954 17.0829 11.059 16.8236 11.1662 16.5397C11.2734 16.2558 11.322 15.9532 11.3093 15.65C9.81361 15.7847 8.30889 15.7847 6.81325 15.65Z" fill="currentColor"/>
</svg>
