<svg width="22" height="20" viewBox="0 0 22 20" fill="none" xmlns="http://www.w3.org/2000/svg">
<path d="M9.97971 1.72002C10.1203 1.57957 10.311 1.50068 10.5097 1.50068C10.7085 1.50068 10.8991 1.57957 11.0397 1.72002L19.7297 10.41C19.7989 10.4816 19.8817 10.5387 19.9732 10.578C20.0648 10.6172 20.1632 10.6379 20.2628 10.6387C20.3623 10.6395 20.4611 10.6205 20.5533 10.5827C20.6454 10.545 20.7291 10.4893 20.7995 10.4188C20.8699 10.3484 20.9255 10.2646 20.9632 10.1724C21.0009 10.0802 21.0198 9.98144 21.0189 9.88186C21.018 9.78228 20.9972 9.68387 20.9579 9.59239C20.9185 9.5009 20.8614 9.41817 20.7897 9.34902L12.1007 0.659019C11.8918 0.450085 11.6437 0.284349 11.3708 0.171274C11.0978 0.0581989 10.8052 0 10.5097 0C10.2142 0 9.92165 0.0581989 9.64866 0.171274C9.37568 0.284349 9.12764 0.450085 8.91871 0.659019L0.228708 9.34902C0.157109 9.41824 0.100012 9.50102 0.0607492 9.59255C0.0214862 9.68407 0.000843397 9.78249 2.53084e-05 9.88208C-0.00079278 9.98166 0.0182302 10.0804 0.0559843 10.1726C0.0937384 10.2647 0.149468 10.3484 0.21992 10.4188C0.290372 10.4892 0.374137 10.5449 0.466327 10.5825C0.558516 10.6202 0.657284 10.6391 0.756868 10.6382C0.856452 10.6373 0.954857 10.6166 1.04634 10.5772C1.13783 10.5379 1.22056 10.4807 1.28971 10.409L9.97971 1.72002Z" fill="#A15C38"/>
<path d="M10.5098 3.31079L18.6688 11.4698C18.6988 11.4998 18.7288 11.5278 18.7598 11.5558V17.7538C18.7598 18.7888 17.9198 19.6288 16.8848 19.6288H13.5098C13.3109 19.6288 13.1201 19.5498 12.9794 19.4091C12.8388 19.2685 12.7598 19.0777 12.7598 18.8788V14.3788C12.7598 14.1799 12.6807 13.9891 12.5401 13.8485C12.3994 13.7078 12.2087 13.6288 12.0098 13.6288H9.00977C8.81085 13.6288 8.62009 13.7078 8.47944 13.8485C8.33878 13.9891 8.25977 14.1799 8.25977 14.3788V18.8788C8.25977 19.0777 8.18075 19.2685 8.0401 19.4091C7.89944 19.5498 7.70868 19.6288 7.50977 19.6288H4.13477C3.63748 19.6288 3.16057 19.4312 2.80894 19.0796C2.45731 18.728 2.25977 18.2511 2.25977 17.7538V11.5558C2.29088 11.528 2.32122 11.4993 2.35077 11.4698L10.5098 3.31079Z" fill="#A15C38"/>
</svg>
