<svg width="22" height="21" viewBox="0 0 22 21" fill="none" xmlns="http://www.w3.org/2000/svg">
<path d="M21.1649 1.63421C20.63 1.14809 19.9047 0.875 19.1484 0.875C18.3921 0.875 17.6668 1.14809 17.132 1.63421L15.875 2.77694L19.9079 6.44316L21.1649 5.30043C21.6996 4.81423 22 4.15485 22 3.46732C22 2.77979 21.6996 2.12041 21.1649 1.63421ZM18.7551 7.49107L14.7223 3.82485L5.59623 12.1212C4.92574 12.7305 4.43285 13.482 4.16214 14.3079L3.29299 16.9598C3.25103 17.0878 3.2479 17.2237 3.28393 17.3532C3.31997 17.4826 3.39382 17.6008 3.49769 17.6952C3.60156 17.7896 3.73157 17.8568 3.87397 17.8896C4.01637 17.9223 4.16587 17.9195 4.30663 17.8813L7.22371 17.0912C8.13222 16.8451 8.95893 16.397 9.62908 15.7875L18.7551 7.49107Z" fill="#A15C38"/>
<path d="M3.25931 4.57861C2.39489 4.57861 1.56587 4.89079 0.954629 5.44646C0.34339 6.00213 0 6.75578 0 7.54161V17.9121C0 18.6979 0.34339 19.4516 0.954629 20.0073C1.56587 20.5629 2.39489 20.8751 3.25931 20.8751H14.6669C15.5313 20.8751 16.3603 20.5629 16.9716 20.0073C17.5828 19.4516 17.9262 18.6979 17.9262 17.9121V12.7269C17.9262 12.5304 17.8403 12.342 17.6875 12.2031C17.5347 12.0642 17.3275 11.9861 17.1114 11.9861C16.8953 11.9861 16.688 12.0642 16.5352 12.2031C16.3824 12.342 16.2965 12.5304 16.2965 12.7269V17.9121C16.2965 18.305 16.1248 18.6819 15.8192 18.9597C15.5136 19.2375 15.0991 19.3936 14.6669 19.3936H3.25931C2.8271 19.3936 2.41259 19.2375 2.10697 18.9597C1.80135 18.6819 1.62965 18.305 1.62965 17.9121V7.54161C1.62965 7.14869 1.80135 6.77187 2.10697 6.49403C2.41259 6.2162 2.8271 6.06011 3.25931 6.06011H8.9631C9.1792 6.06011 9.38646 5.98207 9.53927 5.84315C9.69208 5.70423 9.77792 5.51582 9.77792 5.31936C9.77792 5.1229 9.69208 4.93449 9.53927 4.79557C9.38646 4.65666 9.1792 4.57861 8.9631 4.57861H3.25931Z" fill="#A15C38"/>
</svg>
