<svg width="143" height="19" viewBox="0 0 143 19" fill="none" xmlns="http://www.w3.org/2000/svg">
<path d="M27.5292 0.259766L36.0757 18.0376H32.9593L31.4483 14.567H23.3031L21.7921 18.0376H18.7701L27.2695 0.259766H27.5292ZM26.3251 7.81474L24.3892 12.1116H30.3859L28.4736 7.83835L27.4347 5.40659H27.3875L26.3251 7.81474Z" fill="#A15C38"/>
<path d="M92.5953 0.259766L101.142 18.0376H98.0255L96.5145 14.567H88.3693L86.8583 18.0376H83.8363L92.3356 0.259766H92.5953ZM91.3913 7.81474L89.4553 12.1116H95.4521L93.5397 7.83835L92.5009 5.40659H92.4537L91.3913 7.81474Z" fill="#A15C38"/>
<path d="M51.7851 18.2737C50.0203 18.2737 48.4444 17.8723 47.0633 17.0696C45.6762 16.2669 44.5902 15.169 43.8052 13.7643C43.032 12.3477 42.6483 10.76 42.6483 8.99521C42.6483 7.29534 43.0379 5.76074 43.8288 4.3914C44.6138 3.02206 45.7057 1.95374 47.1105 1.18054C48.5093 0.413236 50.0911 0.0236816 51.8559 0.0236816C52.8003 0.0236816 53.6502 0.112217 54.4057 0.283384C55.173 0.442747 55.8046 0.631621 56.2945 0.850007C56.7785 1.0743 57.109 1.26317 57.2861 1.41663L56.2237 3.68312C55.2144 2.8804 53.7447 2.47905 51.8087 2.47905C50.5161 2.47905 49.3888 2.76236 48.4326 3.32898C47.4882 3.8956 46.7622 4.66881 46.2605 5.64269C45.7706 6.60477 45.5286 7.67309 45.5286 8.85355C45.5286 10.2111 45.7943 11.4211 46.3314 12.4894C46.8626 13.5459 47.6122 14.3722 48.5742 14.9684C49.5304 15.5527 50.6164 15.8419 51.8323 15.8419C52.5878 15.8419 53.3079 15.7475 54.0044 15.5586C54.695 15.3697 55.2793 15.0805 55.7515 14.685V11.2617H52.1156V8.75912H58.4429V15.7239C57.8586 16.4498 56.9851 17.0578 55.8223 17.5418C54.6536 18.0317 53.3079 18.2737 51.7851 18.2737Z" fill="#A15C38"/>
<path d="M0 0.283203H4.50937C7.05918 0.283203 8.74724 0.719974 9.58537 1.58171C10.4176 2.43165 10.8367 3.45865 10.8367 4.65092C10.8367 5.45364 10.6537 6.22094 10.2936 6.94102C9.94541 7.6493 9.38469 8.18641 8.61739 8.54645C9.76244 8.82976 10.6065 9.33736 11.1436 10.0574C11.6748 10.7834 11.9463 11.6393 11.9463 12.6309C11.9463 13.6579 11.781 14.5609 11.4505 15.3459C11.1318 16.1191 10.4648 16.7625 9.44371 17.2819C8.43442 17.7895 6.97654 18.0374 5.076 18.0374H0V0.283203ZM4.95795 7.81456C6.0912 7.81456 6.89981 7.54306 7.38971 6.98824C7.8737 6.43932 8.12159 5.73105 8.12159 4.8634C8.12159 3.34061 7.01786 2.5733 4.81629 2.5733H2.64424V7.81456H4.95795ZM5.43014 15.7709C6.89391 15.7709 7.8737 15.4817 8.3813 14.8973C8.9007 14.3012 9.1604 13.5516 9.1604 12.6545C9.1604 11.8045 8.86529 11.1435 8.28686 10.6713C7.70253 10.1991 6.82308 9.96301 5.64262 9.96301H2.64424V15.7709H5.43014Z" fill="#A15C38"/>
<path d="M116.615 18.2028C114.785 18.2028 113.198 17.7955 111.846 16.9751C110.506 16.1606 109.485 15.0627 108.777 13.6934C108.069 12.3122 107.714 10.7894 107.714 9.13679C107.714 7.3779 108.092 5.80198 108.848 4.41494C109.615 3.03379 110.695 1.95367 112.082 1.18046C113.463 0.395456 115.039 0 116.804 0C117.589 0 118.321 0.0885352 119 0.259702C119.69 0.419065 120.257 0.607939 120.7 0.826325C121.154 1.05061 121.455 1.22768 121.597 1.36934L120.416 3.77749C119.436 2.91575 118.156 2.47897 116.568 2.47897C115.464 2.47897 114.455 2.75638 113.546 3.3053C112.649 3.86012 111.941 4.64513 111.421 5.66623C110.914 6.67553 110.666 7.85009 110.666 9.18401C110.666 10.3999 110.89 11.5095 111.35 12.5129C111.805 13.5045 112.472 14.2954 113.357 14.8738C114.254 15.4582 115.305 15.7474 116.521 15.7474C117.937 15.7474 119.307 15.346 120.629 14.5433L121.431 16.8334C121.083 17.1521 120.44 17.4591 119.496 17.7542C118.551 18.0493 117.589 18.2028 116.615 18.2028Z" fill="#A15C38"/>
<path d="M67.3848 0.283203H71.3039C73.5055 0.283203 75.1168 0.755389 76.1438 1.69976C77.1649 2.64413 77.6784 3.93674 77.6784 5.57168C77.6784 7.47813 77.1177 8.94191 76.0022 9.96301C74.8807 10.9723 73.2281 11.474 71.0442 11.474H70.0998V18.0374H67.3848V0.283203ZM71.115 9.06586C72.5316 9.06586 73.5232 8.75894 74.0898 8.14509C74.6564 7.51945 74.9397 6.75215 74.9397 5.85499C74.9397 4.91062 74.6623 4.14332 74.1134 3.54128C73.5586 2.94515 72.6496 2.64413 71.3747 2.64413H70.0998V9.06586H71.115Z" fill="#A15C38"/>
<path d="M134.265 10.0811L132.801 11.8754V18.0374H130.156V0.283203H132.801V8.21592L138.892 0.283203H142.126L136.012 8.09788L143 18.0374H139.695L134.265 10.0811Z" fill="#A15C38"/>
</svg>
