<svg width="31" height="46" viewBox="0 0 31 46" fill="none" xmlns="http://www.w3.org/2000/svg">
<mask id="mask0_8_206" style="mask-type:luminance" maskUnits="userSpaceOnUse" x="0" y="20" width="31" height="26">
<path d="M0 20.9429H31V45.2817H0V20.9429Z" fill="white"/>
</mask>
<g mask="url(#mask0_8_206)">
<path fill-rule="evenodd" clip-rule="evenodd" d="M20.0168 36.6831C19.9181 36.7044 19.8234 36.7311 19.7339 36.7618C19.3883 36.8792 19.1095 37.0687 18.9146 37.3943C18.545 38.0121 18.8613 38.5419 18.9867 38.7113C18.2168 40.6502 18.1794 42.9119 18.2675 43.9968C18.2688 43.9994 18.2688 44.0008 18.2688 44.0034C18.2742 44.0688 18.2795 44.1315 18.2862 44.1889C18.3062 44.3704 18.3302 44.5051 18.3529 44.5825C18.3676 44.6332 18.3849 44.6666 18.3983 44.684C18.4143 44.704 18.4423 44.728 18.485 44.7493C18.5464 44.7814 18.6518 44.8187 18.8012 44.8561C19.5885 45.0589 21.6488 45.3338 24.3629 45.3271C26.7367 45.3218 28.5955 45.0562 29.5722 44.8521C30.0086 44.7613 30.2754 44.6786 30.3435 44.6373C30.573 44.4998 31.0881 44.1382 30.9079 42.7505C30.7331 41.4148 29.5736 39.6988 27.6841 39.0823C25.9988 38.5339 24.5363 39.2464 24.2334 39.4105C23.8718 39.197 23.4528 38.674 23.3034 38.4792C23.5983 38.1309 23.669 37.477 23.1739 36.998C22.9698 36.8005 22.6922 36.6738 22.376 36.6004C22.2986 36.583 22.2199 36.5683 22.1385 36.5577L22.1758 37.1581C21.6981 29.6923 21.9357 22.0411 21.9357 22.0411C21.9463 21.4553 21.4793 20.9696 20.8922 20.9589C20.3064 20.9482 19.8207 21.4153 19.81 22.0011C19.81 22.0011 19.5845 29.3321 20.0168 36.6831ZM9.91702 36.3588C9.72487 36.3535 9.53939 36.3642 9.36859 36.3935C9.02566 36.4536 8.74411 36.591 8.57465 36.8205C8.19569 37.3316 8.31311 37.816 8.47457 38.0788C8.32779 38.2336 7.90479 38.6353 7.34836 38.7941C7.12419 38.5846 6.12742 37.7626 4.30868 37.7359C2.22173 37.7052 0.791287 39.1557 0.34294 40.4353C0.190822 40.8677 0.108092 41.2146 0.0720637 41.4921C0.0707295 41.4988 0.0707294 41.5042 0.0707294 41.5108C0.0453763 41.719 0.046711 41.8871 0.0653919 42.0232C0.0974167 42.2621 0.184151 42.4089 0.274887 42.4969C0.445686 42.6584 2.00823 43.8953 5.44022 44.5759C8.16633 45.1163 10.735 45.2364 11.7371 45.1843C11.9212 45.175 12.056 45.1577 12.1321 45.139C12.1881 45.1243 12.2241 45.1029 12.2415 45.0856C12.2962 45.0336 12.3656 44.8748 12.427 44.6399C12.4376 44.5986 12.4496 44.5545 12.4603 44.5078C12.4603 44.5051 12.4603 44.5038 12.4617 44.5011C12.5764 44.0061 12.6938 43.2482 12.7846 42.5263C12.9207 41.4281 12.8846 39.8922 12.6992 39.201C12.8473 39.0836 13.1769 38.762 13.1702 38.2189C13.1649 37.8186 12.9647 37.4877 12.5777 37.2088C12.431 37.1021 12.2548 37.0033 12.052 36.9099C13.832 29.5723 13.7747 22.0318 13.7747 22.0318C13.78 21.4446 13.309 20.9643 12.7219 20.9589C12.1361 20.9522 11.6544 21.4246 11.649 22.0104C11.649 22.0104 11.7077 29.2854 9.91702 36.3588ZM22.1532 36.8085C22.1585 36.8819 22.1625 36.954 22.1665 37.0274C22.1692 37.0567 22.1705 37.0861 22.1732 37.1154C22.1745 37.1368 22.1758 37.1595 22.1772 37.1821C22.1772 37.2062 22.1785 37.2302 22.1772 37.2542C22.1745 37.3102 22.1678 37.365 22.1532 37.4197C22.1371 37.4784 22.1118 37.5344 22.0771 37.5838C22.0638 37.6011 22.0491 37.6198 22.0344 37.6358C22.0237 37.6465 22.013 37.6572 22.0024 37.6679C21.9303 37.7332 21.8422 37.7786 21.7515 37.812C21.7368 37.8173 21.7208 37.8226 21.7061 37.8266C21.6861 37.8333 21.6661 37.8387 21.6461 37.844C21.6207 37.8507 21.5941 37.8573 21.5687 37.8627C21.5327 37.8707 21.4953 37.876 21.4593 37.8827C21.3659 37.896 21.2725 37.9054 21.1777 37.912C21.1124 37.916 21.047 37.9187 20.9829 37.9201C20.9349 37.9214 20.8882 37.9214 20.8415 37.9187C20.8068 37.9187 20.7721 37.916 20.7374 37.9134C20.7107 37.9107 20.6854 37.908 20.66 37.904C20.64 37.9014 20.6213 37.8987 20.6013 37.8947C20.5866 37.892 20.5719 37.8894 20.5573 37.8854C20.4625 37.864 20.3704 37.8306 20.2904 37.7746C20.2784 37.7653 20.2664 37.7559 20.2544 37.7466C20.237 37.7319 20.221 37.7172 20.2063 37.7012C20.165 37.6558 20.1329 37.6038 20.1089 37.5478C20.0876 37.4957 20.0729 37.441 20.0635 37.385C20.0609 37.3636 20.0582 37.3409 20.0555 37.3183C20.0542 37.2956 20.0529 37.2729 20.0515 37.2502C20.0489 37.2208 20.0475 37.1915 20.0462 37.1608C20.0409 37.0874 20.0369 37.014 20.0315 36.9406L20.0302 36.9086C19.9528 36.9273 19.8781 36.9486 19.806 36.9727C19.5124 37.0741 19.2736 37.2315 19.1068 37.5091C18.7652 38.0788 19.1442 38.5565 19.1922 38.6126C19.2322 38.6433 19.5111 38.8488 20.0582 38.9155C20.1196 38.9235 20.1623 38.9782 20.1556 39.0396C20.1476 39.101 20.0916 39.145 20.0302 39.137C19.5992 39.085 19.3163 38.9529 19.1668 38.8648C18.4556 40.7062 18.4063 42.8279 18.485 43.9034C18.8679 44.0048 20.7254 44.4504 23.7704 44.5051C23.8318 44.5065 23.8812 44.5572 23.8798 44.6186C23.8785 44.6813 23.8278 44.7307 23.7664 44.7293C20.8668 44.6773 19.0334 44.273 18.5063 44.1395C18.5077 44.1475 18.5077 44.1555 18.509 44.1636C18.529 44.3424 18.5677 44.5078 18.5771 44.5438C18.5931 44.5519 18.6318 44.5719 18.6691 44.5852C18.7839 44.6252 18.964 44.6706 19.2029 44.7173C20.1529 44.9028 22.009 45.1083 24.3629 45.1029C26.7154 45.0976 28.5581 44.8347 29.5269 44.6332C29.9232 44.5519 30.166 44.4838 30.2274 44.4464C30.3328 44.3824 30.4969 44.2623 30.6064 43.9888C29.8444 44.2983 28.0938 44.6626 25.1568 44.7267C25.0954 44.728 25.0447 44.6786 25.0434 44.6172C25.0421 44.5545 25.0901 44.5038 25.1528 44.5025C28.2766 44.4344 30.0353 44.0315 30.6744 43.7139C30.6784 43.7125 30.6824 43.7112 30.6851 43.7099C30.7278 43.4777 30.7371 43.1761 30.6851 42.7785C30.5196 41.5082 29.4108 39.8816 27.6147 39.2958C25.8213 38.7113 24.2921 39.6347 24.2921 39.6347H24.2908C24.2908 39.6347 23.6089 40.039 22.9698 40.921C22.9338 40.9717 22.8644 40.9824 22.8137 40.9464C22.7643 40.9104 22.7523 40.8396 22.7896 40.7903C23.2727 40.1218 23.7811 39.7161 24.0266 39.5426C23.6703 39.2904 23.286 38.8194 23.1339 38.6246C22.9778 38.7313 22.6375 38.9328 22.2132 39.0102C22.1532 39.0209 22.0944 38.9809 22.0838 38.9208C22.0718 38.8594 22.1118 38.8007 22.1732 38.7901C22.6776 38.6967 23.0512 38.4111 23.0845 38.3857C23.3608 38.1295 23.4382 37.5651 23.0192 37.1595C22.8417 36.9873 22.6002 36.8819 22.3253 36.8192C22.2692 36.8059 22.2105 36.7952 22.1518 36.7858L22.1532 36.8085ZM9.86097 36.5817C9.70218 36.579 9.54873 36.5897 9.40729 36.6137C9.12707 36.6631 8.89356 36.7672 8.75478 36.954C8.41852 37.4063 8.5573 37.832 8.70541 38.0188L8.70808 38.0215C8.70808 38.0215 8.88956 38.2657 9.30588 38.4711C9.36192 38.4992 9.38461 38.5659 9.35658 38.6206C9.3299 38.6766 9.26184 38.6993 9.20714 38.6726C8.90824 38.5245 8.71742 38.3577 8.61601 38.255C8.44788 38.4258 8.05157 38.7861 7.53251 38.9702C7.75401 39.1944 8.19435 39.6934 8.58399 40.45C8.61334 40.5061 8.59066 40.5728 8.53595 40.6008C8.48124 40.6301 8.41452 40.6075 8.38517 40.5528C7.86743 39.5453 7.25629 39.0142 7.24295 39.0036L7.23894 38.9996C7.23761 38.9982 7.23628 38.9956 7.23361 38.9942C7.21226 38.9715 6.25552 37.9894 4.30467 37.9601C2.33248 37.9307 0.978099 39.2998 0.55377 40.5087C0.416331 40.901 0.337603 41.2186 0.30024 41.4748C0.492389 41.6563 1.45046 42.4889 3.52807 43.1908C3.58678 43.2108 3.61881 43.2735 3.59879 43.3322C3.57878 43.391 3.51606 43.423 3.45735 43.403C1.62927 42.7852 0.645841 42.0659 0.274887 41.7524C0.274887 41.7817 0.274887 41.8097 0.274887 41.8364C0.280225 42.1006 0.345609 42.2541 0.429674 42.3341C0.59647 42.4929 2.12832 43.6912 5.48425 44.3557C8.18635 44.8921 10.7323 45.0122 11.7251 44.9602C11.9052 44.9508 12.064 44.9215 12.0947 44.9161C12.1027 44.9028 12.1121 44.8841 12.1214 44.8614C12.1494 44.7974 12.1774 44.708 12.2068 44.5972C11.5196 44.6226 8.57064 44.6719 5.05058 43.8526C4.99054 43.8393 4.95318 43.7793 4.96652 43.7192C4.9812 43.6592 5.04124 43.6218 5.10129 43.6351C8.72009 44.4771 11.7291 44.3944 12.2615 44.3717C12.3696 43.8833 12.4777 43.1748 12.5617 42.4983C12.6925 41.4535 12.6658 39.999 12.4963 39.3091C12.3402 39.3612 12.0387 39.4212 11.561 39.3678C11.4996 39.3598 11.4555 39.3051 11.4622 39.2437C11.4689 39.1824 11.5249 39.1383 11.5863 39.145C12.2335 39.2184 12.507 39.0636 12.5124 39.0623C12.5217 39.0556 12.9527 38.7834 12.946 38.2216C12.942 37.8894 12.7672 37.6212 12.447 37.3903C12.3189 37.2982 12.1694 37.2128 11.9986 37.1314L11.9973 37.1328C11.9679 37.2515 11.9386 37.369 11.9079 37.4877C11.8986 37.5251 11.8892 37.5611 11.8799 37.5985C11.8772 37.6105 11.8732 37.6225 11.8705 37.6345C11.8665 37.6478 11.8625 37.6612 11.8572 37.6732C11.8452 37.7079 11.8278 37.7412 11.8065 37.7706C11.7851 37.8013 11.7584 37.8293 11.7291 37.8533C11.7211 37.86 11.7117 37.8667 11.7024 37.8733C11.637 37.9174 11.561 37.9414 11.4836 37.9561C11.4716 37.9587 11.4582 37.9601 11.4449 37.9628C11.4289 37.9654 11.4115 37.9668 11.3942 37.9681C11.3728 37.9708 11.3501 37.9721 11.3274 37.9721C11.2981 37.9734 11.2687 37.9734 11.2407 37.9721C11.2033 37.9708 11.1673 37.9694 11.1313 37.9654C11.0285 37.9574 10.9258 37.9414 10.8244 37.9214C10.7977 37.916 10.7723 37.9107 10.7457 37.9054C10.7256 37.9014 10.7056 37.896 10.6869 37.892C10.6616 37.8867 10.6376 37.88 10.6136 37.8733C10.4961 37.8413 10.3827 37.8 10.272 37.7493C10.1839 37.7079 10.0972 37.6585 10.0171 37.6011C9.98107 37.5758 9.94637 37.5478 9.91435 37.5184C9.88633 37.4931 9.85964 37.465 9.83429 37.4357C9.79826 37.393 9.76623 37.3449 9.74488 37.2916C9.73421 37.2649 9.7262 37.2355 9.72087 37.2048C9.71686 37.1741 9.71686 37.1408 9.7222 37.1101C9.72353 37.1021 9.72487 37.0941 9.72754 37.0861C9.72887 37.0754 9.73154 37.0661 9.73421 37.0567C9.73688 37.05 9.73821 37.042 9.74088 37.0354C9.74889 37.0073 9.75556 36.978 9.76357 36.95C9.79559 36.8285 9.82761 36.7071 9.85964 36.5857L9.86097 36.5817Z" fill="#A15C38"/>
</g>
<mask id="mask1_8_206" style="mask-type:luminance" maskUnits="userSpaceOnUse" x="5" y="0" width="24" height="31">
<path d="M5.21069 0H28.0123V31H5.21069V0Z" fill="white"/>
</mask>
<g mask="url(#mask1_8_206)">
<path d="M16.4421 0.00802703C17.0732 0.00268956 17.7284 0.0267081 18.3529 0.116111C19.7033 0.308259 20.9656 0.788631 22.1558 1.44514C23.3474 2.10165 24.3722 2.985 25.2516 4.02047C26.307 5.2641 27.1157 6.68787 27.5667 8.25841C27.8629 9.29255 28.0217 10.3814 28.0324 11.4582C28.0337 11.6677 28.0444 11.8839 28.027 12.0934C27.995 12.479 27.9109 12.85 27.8269 13.2263C27.568 14.3912 27.1704 15.5054 26.706 16.6022C26.2243 17.7418 25.6759 18.8426 25.0701 19.9194C24.487 20.9576 23.8598 21.9637 23.2113 22.9618C22.9124 23.4222 22.6188 23.8852 22.3079 24.3362C21.893 24.9367 21.4606 25.5224 21.031 26.1122C20.6306 26.6593 20.237 27.2118 19.8234 27.7495C19.4844 28.1925 19.1215 28.6208 18.7759 29.0599C18.4663 29.4535 18.1514 29.8445 17.8325 30.2301C17.6577 30.4423 17.4762 30.6931 17.2627 30.8679C17.1506 30.96 17.0425 31.016 16.9038 31.0547L16.6756 31.0841C16.4808 31.0894 16.2659 31.0214 16.1218 30.8879C15.8469 30.6331 15.6041 30.3115 15.3639 30.0233C14.7955 29.3387 14.251 28.6369 13.7093 27.931C12.6805 26.5939 11.673 25.2422 10.7296 23.8438C10.388 23.3354 10.0678 22.815 9.73821 22.3C8.12496 19.7807 6.64115 17.0906 5.79382 14.207C5.56431 13.4264 5.34681 12.6245 5.32279 11.8065C5.23339 8.7508 6.43032 5.74313 8.52794 3.53075C8.81483 3.22785 9.12307 2.95564 9.44065 2.68743C10.9645 1.40244 12.7552 0.525761 14.7221 0.169485C15.2932 0.0654046 15.8616 0.0240394 16.4421 0.00802703ZM16.5261 5.97398C16.3086 5.98199 16.0911 5.98732 15.875 6.02068C14.7421 6.19415 13.5945 6.77727 12.8139 7.61792C11.7971 8.71343 11.2954 10.0945 11.3488 11.5837C11.3968 12.9287 11.992 14.2537 12.9834 15.1664C14.0309 16.1285 15.3946 16.6903 16.8277 16.6289C17.1066 16.6182 17.3788 16.6022 17.655 16.5528C18.8186 16.342 19.8634 15.7509 20.664 14.8809C21.6474 13.8107 22.0811 12.4256 22.0184 10.9885C21.9583 9.63148 21.3472 8.28911 20.3384 7.37773C19.6152 6.72389 18.6945 6.23818 17.7337 6.05671C17.3388 5.98332 16.9264 5.96197 16.5261 5.97398Z" fill="#A15C38"/>
</g>
</svg>
