<svg width="22" height="21" viewBox="0 0 22 21" fill="none" xmlns="http://www.w3.org/2000/svg">
<path d="M11.8461 11.0192C11.8461 11.2232 11.757 11.4189 11.5983 11.5632C11.4396 11.7074 11.2244 11.7885 11 11.7885C10.7756 11.7885 10.5603 11.7074 10.4017 11.5632C10.243 11.4189 10.1538 11.2232 10.1538 11.0192C10.1538 10.8152 10.243 10.6196 10.4017 10.4753C10.5603 10.331 10.7756 10.25 11 10.25C11.2244 10.25 11.4396 10.331 11.5983 10.4753C11.757 10.6196 11.8461 10.8152 11.8461 11.0192ZM5.92306 14.0962C6.14747 14.0962 6.36269 14.0151 6.52138 13.8709C6.68006 13.7266 6.76921 13.5309 6.76921 13.3269C6.76921 13.1229 6.68006 12.9273 6.52138 12.783C6.36269 12.6387 6.14747 12.5577 5.92306 12.5577C5.69864 12.5577 5.48342 12.6387 5.32474 12.783C5.16605 12.9273 5.0769 13.1229 5.0769 13.3269C5.0769 13.5309 5.16605 13.7266 5.32474 13.8709C5.48342 14.0151 5.69864 14.0962 5.92306 14.0962ZM6.76921 15.6346C6.76921 15.8386 6.68006 16.0343 6.52138 16.1785C6.36269 16.3228 6.14747 16.4038 5.92306 16.4038C5.69864 16.4038 5.48342 16.3228 5.32474 16.1785C5.16605 16.0343 5.0769 15.8386 5.0769 15.6346C5.0769 15.4306 5.16605 15.2349 5.32474 15.0907C5.48342 14.9464 5.69864 14.8654 5.92306 14.8654C6.14747 14.8654 6.36269 14.9464 6.52138 15.0907C6.68006 15.2349 6.76921 15.4306 6.76921 15.6346ZM8.46152 14.0962C8.68593 14.0962 8.90116 14.0151 9.05984 13.8709C9.21853 13.7266 9.30767 13.5309 9.30767 13.3269C9.30767 13.1229 9.21853 12.9273 9.05984 12.783C8.90116 12.6387 8.68593 12.5577 8.46152 12.5577C8.23711 12.5577 8.02188 12.6387 7.8632 12.783C7.70451 12.9273 7.61537 13.1229 7.61537 13.3269C7.61537 13.5309 7.70451 13.7266 7.8632 13.8709C8.02188 14.0151 8.23711 14.0962 8.46152 14.0962ZM9.30767 15.6346C9.30767 15.8386 9.21853 16.0343 9.05984 16.1785C8.90116 16.3228 8.68593 16.4038 8.46152 16.4038C8.23711 16.4038 8.02188 16.3228 7.8632 16.1785C7.70451 16.0343 7.61537 15.8386 7.61537 15.6346C7.61537 15.4306 7.70451 15.2349 7.8632 15.0907C8.02188 14.9464 8.23711 14.8654 8.46152 14.8654C8.68593 14.8654 8.90116 14.9464 9.05984 15.0907C9.21853 15.2349 9.30767 15.4306 9.30767 15.6346ZM11 14.0962C11.2244 14.0962 11.4396 14.0151 11.5983 13.8709C11.757 13.7266 11.8461 13.5309 11.8461 13.3269C11.8461 13.1229 11.757 12.9273 11.5983 12.783C11.4396 12.6387 11.2244 12.5577 11 12.5577C10.7756 12.5577 10.5603 12.6387 10.4017 12.783C10.243 12.9273 10.1538 13.1229 10.1538 13.3269C10.1538 13.5309 10.243 13.7266 10.4017 13.8709C10.5603 14.0151 10.7756 14.0962 11 14.0962ZM11.8461 15.6346C11.8461 15.8386 11.757 16.0343 11.5983 16.1785C11.4396 16.3228 11.2244 16.4038 11 16.4038C10.7756 16.4038 10.5603 16.3228 10.4017 16.1785C10.243 16.0343 10.1538 15.8386 10.1538 15.6346C10.1538 15.4306 10.243 15.2349 10.4017 15.0907C10.5603 14.9464 10.7756 14.8654 11 14.8654C11.2244 14.8654 11.4396 14.9464 11.5983 15.0907C11.757 15.2349 11.8461 15.4306 11.8461 15.6346ZM13.5384 14.0962C13.7629 14.0962 13.9781 14.0151 14.1368 13.8709C14.2954 13.7266 14.3846 13.5309 14.3846 13.3269C14.3846 13.1229 14.2954 12.9273 14.1368 12.783C13.9781 12.6387 13.7629 12.5577 13.5384 12.5577C13.314 12.5577 13.0988 12.6387 12.9401 12.783C12.7814 12.9273 12.6923 13.1229 12.6923 13.3269C12.6923 13.5309 12.7814 13.7266 12.9401 13.8709C13.0988 14.0151 13.314 14.0962 13.5384 14.0962ZM14.3846 15.6346C14.3846 15.8386 14.2954 16.0343 14.1368 16.1785C13.9781 16.3228 13.7629 16.4038 13.5384 16.4038C13.314 16.4038 13.0988 16.3228 12.9401 16.1785C12.7814 16.0343 12.6923 15.8386 12.6923 15.6346C12.6923 15.4306 12.7814 15.2349 12.9401 15.0907C13.0988 14.9464 13.314 14.8654 13.5384 14.8654C13.7629 14.8654 13.9781 14.9464 14.1368 15.0907C14.2954 15.2349 14.3846 15.4306 14.3846 15.6346ZM16.0769 14.0962C16.3013 14.0962 16.5165 14.0151 16.6752 13.8709C16.8339 13.7266 16.9231 13.5309 16.9231 13.3269C16.9231 13.1229 16.8339 12.9273 16.6752 12.783C16.5165 12.6387 16.3013 12.5577 16.0769 12.5577C15.8525 12.5577 15.6373 12.6387 15.4786 12.783C15.3199 12.9273 15.2308 13.1229 15.2308 13.3269C15.2308 13.5309 15.3199 13.7266 15.4786 13.8709C15.6373 14.0151 15.8525 14.0962 16.0769 14.0962ZM14.3846 11.0192C14.3846 11.2232 14.2954 11.4189 14.1368 11.5632C13.9781 11.7074 13.7629 11.7885 13.5384 11.7885C13.314 11.7885 13.0988 11.7074 12.9401 11.5632C12.7814 11.4189 12.6923 11.2232 12.6923 11.0192C12.6923 10.8152 12.7814 10.6196 12.9401 10.4753C13.0988 10.331 13.314 10.25 13.5384 10.25C13.7629 10.25 13.9781 10.331 14.1368 10.4753C14.2954 10.6196 14.3846 10.8152 14.3846 11.0192ZM16.0769 11.7885C16.3013 11.7885 16.5165 11.7074 16.6752 11.5632C16.8339 11.4189 16.9231 11.2232 16.9231 11.0192C16.9231 10.8152 16.8339 10.6196 16.6752 10.4753C16.5165 10.331 16.3013 10.25 16.0769 10.25C15.8525 10.25 15.6373 10.331 15.4786 10.4753C15.3199 10.6196 15.2308 10.8152 15.2308 11.0192C15.2308 11.2232 15.3199 11.4189 15.4786 11.5632C15.6373 11.7074 15.8525 11.7885 16.0769 11.7885Z" fill="#A15C38"/>
<path fill-rule="evenodd" clip-rule="evenodd" d="M5.07692 0.25C5.30134 0.25 5.51656 0.331044 5.67524 0.475302C5.83393 0.619561 5.92308 0.815218 5.92308 1.01923V2.55769H16.0769V1.01923C16.0769 0.815218 16.1661 0.619561 16.3248 0.475302C16.4834 0.331044 16.6987 0.25 16.9231 0.25C17.1475 0.25 17.3627 0.331044 17.5214 0.475302C17.6801 0.619561 17.7692 0.815218 17.7692 1.01923V2.55769H18.6154C19.513 2.55769 20.3739 2.88187 21.0087 3.4589C21.6434 4.03594 22 4.81856 22 5.63462V17.1731C22 17.9891 21.6434 18.7718 21.0087 19.3488C20.3739 19.9258 19.513 20.25 18.6154 20.25H3.38462C2.48696 20.25 1.62607 19.9258 0.991331 19.3488C0.356593 18.7718 0 17.9891 0 17.1731V5.63462C0 4.81856 0.356593 4.03594 0.991331 3.4589C1.62607 2.88187 2.48696 2.55769 3.38462 2.55769H4.23077V1.01923C4.23077 0.815218 4.31992 0.619561 4.4786 0.475302C4.63729 0.331044 4.85251 0.25 5.07692 0.25ZM20.3077 9.48077C20.3077 9.07274 20.1294 8.68143 19.812 8.39291C19.4947 8.1044 19.0642 7.94231 18.6154 7.94231H3.38462C2.93579 7.94231 2.50534 8.1044 2.18797 8.39291C1.8706 8.68143 1.69231 9.07274 1.69231 9.48077V17.1731C1.69231 17.5811 1.8706 17.9724 2.18797 18.2609C2.50534 18.5495 2.93579 18.7115 3.38462 18.7115H18.6154C19.0642 18.7115 19.4947 18.5495 19.812 18.2609C20.1294 17.9724 20.3077 17.5811 20.3077 17.1731V9.48077Z" fill="#A15C38"/>
</svg>
