<svg width="22" height="20" viewBox="0 0 22 20" fill="none" xmlns="http://www.w3.org/2000/svg">
<path fill-rule="evenodd" clip-rule="evenodd" d="M10.8059 1.1103e-07C9.77251 1.1103e-07 8.88913 0.68 8.71877 1.60718L8.6161 2.17026C8.58765 2.3116 8.51876 2.44364 8.41637 2.5531C8.31399 2.66257 8.1817 2.7456 8.03282 2.79385C7.85053 2.85584 7.67066 2.92358 7.49354 2.99692C7.3507 3.05866 7.19249 3.08509 7.03483 3.07357C6.87718 3.06205 6.72564 3.01297 6.59549 2.93128L6.08441 2.59897C5.67689 2.33429 5.1793 2.20964 4.68017 2.24721C4.18104 2.28477 3.71276 2.48211 3.35867 2.8041L3.08451 3.05333C2.73032 3.37524 2.51325 3.80094 2.47193 4.2547C2.43061 4.70845 2.56772 5.16081 2.85887 5.53128L3.22441 5.9959C3.31427 6.11422 3.36825 6.25198 3.38093 6.3953C3.3936 6.53862 3.36452 6.68245 3.29662 6.81231C3.21593 6.97333 3.14142 7.13684 3.07323 7.30256C3.02016 7.43791 2.92882 7.55817 2.80841 7.65125C2.688 7.74433 2.54276 7.80695 2.38728 7.83282L1.76677 7.92718C1.27309 8.00217 0.824646 8.23387 0.501158 8.58109C0.177671 8.92831 9.69391e-05 9.36857 0 9.82359V10.1764C0 11.1159 0.748 11.919 1.7679 12.0738L2.38728 12.1672C2.70431 12.2154 2.96041 12.4236 3.07323 12.6974C3.14092 12.8636 3.21651 13.0267 3.29662 13.1877C3.36452 13.3175 3.3936 13.4614 3.38093 13.6047C3.36825 13.748 3.31427 13.8858 3.22441 14.0041L2.85887 14.4687C2.56772 14.8392 2.43061 15.2915 2.47193 15.7453C2.51325 16.1991 2.73032 16.6248 3.08451 16.9467L3.35867 17.1959C4.08974 17.8605 5.24277 17.9477 6.08441 17.401L6.59549 17.0687C6.72564 16.987 6.87718 16.938 7.03483 16.9264C7.19249 16.9149 7.3507 16.9413 7.49354 17.0031C7.67067 17.0759 7.85005 17.1436 8.03282 17.2062C8.33405 17.3087 8.56308 17.5415 8.6161 17.8297L8.7199 18.3938C8.88913 19.32 9.77139 20 10.8059 20H11.1941C12.2275 20 13.1109 19.32 13.2812 18.3928L13.3839 17.8297C13.4124 17.6884 13.4812 17.5564 13.5836 17.4469C13.686 17.3374 13.8183 17.2544 13.9672 17.2062C14.1495 17.1441 14.3293 17.0764 14.5065 17.0031C14.6493 16.9413 14.8075 16.9149 14.9652 16.9264C15.1228 16.938 15.2744 16.987 15.4045 17.0687L15.9156 17.401C16.3231 17.6657 16.8207 17.7904 17.3198 17.7528C17.819 17.7152 18.2872 17.5179 18.6413 17.1959L18.9155 16.9467C19.6466 16.2821 19.7425 15.2338 19.1411 14.4687L18.7756 14.0041C18.6857 13.8858 18.6317 13.748 18.6191 13.6047C18.6064 13.4614 18.6355 13.3175 18.7034 13.1877C18.7835 13.0267 18.8579 12.8636 18.9268 12.6974C19.0396 12.4236 19.2957 12.2154 19.6127 12.1672L20.2332 12.0738C20.7271 11.9988 21.1757 11.767 21.4992 11.4195C21.8227 11.0721 22.0002 10.6316 22 10.1764V9.82359C22 8.8841 21.252 8.08103 20.2321 7.92615L19.6127 7.83282C19.4572 7.80695 19.312 7.74433 19.1916 7.65125C19.0712 7.55817 18.9798 7.43791 18.9268 7.30256C18.8585 7.13686 18.784 6.97335 18.7034 6.81231C18.6355 6.68245 18.6064 6.53862 18.6191 6.3953C18.6317 6.25198 18.6857 6.11422 18.7756 5.9959L19.1411 5.53128C19.4323 5.16081 19.5694 4.70845 19.5281 4.2547C19.4868 3.80094 19.2697 3.37524 18.9155 3.05333L18.6413 2.8041C18.2872 2.48211 17.819 2.28477 17.3198 2.24721C16.8207 2.20964 16.3231 2.33429 15.9156 2.59897L15.4045 2.93128C15.2744 3.01297 15.1228 3.06205 14.9652 3.07357C14.8075 3.08509 14.6493 3.05866 14.5065 2.99692C14.3293 2.92358 14.1495 2.85585 13.9672 2.79385C13.8183 2.7456 13.686 2.66257 13.5836 2.5531C13.4812 2.44364 13.4124 2.3116 13.3839 2.17026L13.2812 1.60615C13.1987 1.15718 12.9437 0.749368 12.5615 0.455267C12.1793 0.161167 11.6948 -0.000154499 11.1941 1.1103e-07H10.8059ZM11 13.8462C12.1221 13.8462 13.1982 13.4409 13.9916 12.7196C14.785 11.9983 15.2308 11.0201 15.2308 10C15.2308 8.97994 14.785 8.00165 13.9916 7.28036C13.1982 6.55907 12.1221 6.15385 11 6.15385C9.87793 6.15385 8.80182 6.55907 8.00839 7.28036C7.21497 8.00165 6.76923 8.97994 6.76923 10C6.76923 11.0201 7.21497 11.9983 8.00839 12.7196C8.80182 13.4409 9.87793 13.8462 11 13.8462Z" fill="#A15C38"/>
</svg>
