<svg viewBox="0 0 512.00 512.00" id="Layer_1" version="1.1" xml:space="preserve" xmlns="http://www.w3.org/2000/svg" xmlns:xlink="http://www.w3.org/1999/xlink" fill="#000000" stroke="#000000" stroke-width="10.24"><g id="SVGRepo_bgCarrier" stroke-width="0"></g><g id="SVGRepo_tracerCarrier" stroke-linecap="round" stroke-linejoin="round"></g><g id="SVGRepo_iconCarrier"> <style type="text/css"> .st0{fill:##000000;} .st1{fill:##000000;} </style> <g> <g> <path class="st1" d="M253.4,268H95.8V42h157.6c62.3,0,113,50.7,113,113S315.7,268,253.4,268z M119.8,244h133.6 c49.1,0,89-39.9,89-89s-39.9-89-89-89H119.8V244z"></path> </g> <g> <path class="st0" d="M293.2,470H95.8V244h197.4c62.3,0,113,50.7,113,113S355.5,470,293.2,470z M119.8,446h173.4 c49.1,0,89-39.9,89-89s-39.9-89-89-89H119.8V446z"></path> </g> </g> </g></svg>