<svg xmlns="http://www.w3.org/2000/svg" xmlns:xlink="http://www.w3.org/1999/xlink" width="500" zoomAndPan="magnify" viewBox="0 0 375 374.999991" height="500" preserveAspectRatio="xMidYMid meet" version="1.0"><defs><g/><clipPath id="e203d9b61d"><path d="M 109.484375 89.332031 L 268.484375 89.332031 L 268.484375 256.582031 L 109.484375 256.582031 Z M 109.484375 89.332031 " clip-rule="nonzero"/></clipPath><clipPath id="7730254d22"><path d="M 140.167969 213 L 230.917969 213 L 230.917969 239 L 140.167969 239 Z M 140.167969 213 " clip-rule="nonzero"/></clipPath><clipPath id="79afb8ce32"><path d="M 140.167969 167.8125 L 230.917969 167.8125 L 230.917969 239.0625 L 140.167969 239.0625 Z M 140.167969 167.8125 " clip-rule="nonzero"/></clipPath><clipPath id="1ab3313a7a"><path d="M 155.421875 106.503906 L 222.171875 106.503906 L 222.171875 197.253906 L 155.421875 197.253906 Z M 155.421875 106.503906 " clip-rule="nonzero"/></clipPath></defs><g clip-path="url(#e203d9b61d)"><path fill="#5d805f" d="M 110.890625 99.507812 C 110.628906 121.558594 110.285156 143.765625 110.167969 165.945312 C 110.089844 180.746094 110.109375 195.53125 110.320312 210.25 C 110.394531 215.636719 109.484375 228.628906 110.035156 238.761719 C 110.324219 244.03125 111.023438 248.53125 112.425781 250.851562 C 113.21875 252.171875 114.894531 252.863281 116.945312 253.15625 C 120.789062 253.703125 125.96875 252.898438 128.316406 253.078125 C 133.078125 253.4375 137.84375 253.691406 142.605469 254.023438 C 145.78125 254.242188 148.945312 254.558594 152.121094 254.761719 C 160.050781 255.261719 167.996094 255.550781 175.933594 256.007812 C 178.761719 256.167969 183.316406 256.222656 188.894531 256.121094 C 192.777344 256.050781 197.160156 255.882812 201.800781 255.707031 C 211.429688 255.34375 222.167969 254.800781 231.882812 254.351562 C 248.410156 253.582031 261.957031 252.960938 261.957031 252.960938 C 262.15625 252.949219 262.316406 252.800781 262.339844 252.601562 L 266.179688 220.171875 C 267.628906 207.917969 268.101562 195.851562 268.15625 183.820312 C 268.238281 165.746094 267.375 147.746094 267.460938 129.300781 C 267.46875 127.65625 267.683594 121.023438 267.554688 113.847656 C 267.492188 110.359375 267.339844 106.746094 267.078125 103.515625 C 266.832031 100.445312 266.484375 97.71875 266.023438 95.75 C 265.609375 93.972656 265.042969 92.773438 264.457031 92.339844 C 263.808594 91.84375 258.96875 91.5625 252.890625 91.4375 C 242.765625 91.234375 229.105469 91.210938 226.726562 91.0625 C 212.652344 90.207031 197.984375 89.613281 183.3125 89.484375 C 168.640625 89.355469 153.964844 89.695312 139.875 90.550781 C 132.390625 91.007812 124.652344 93.578125 117.144531 94.625 C 115.242188 94.886719 113.355469 95.054688 111.488281 95.058594 C 111.148438 95.058594 110.867188 95.332031 110.859375 95.671875 L 110.769531 99.496094 Z M 112.027344 99.527344 L 112.105469 96.316406 C 113.828125 96.289062 115.566406 96.132812 117.320312 95.894531 C 124.796875 94.878906 132.503906 92.339844 139.953125 91.914062 C 154.015625 91.097656 168.660156 90.851562 183.300781 90.964844 C 197.949219 91.078125 212.597656 91.554688 226.652344 92.347656 C 229.34375 92.496094 246.46875 92.183594 256.59375 92.660156 C 260.390625 92.839844 263.148438 93.070312 263.597656 93.4375 C 264.011719 93.78125 264.230469 94.742188 264.476562 96.074219 C 264.828125 98 265.039062 100.65625 265.1875 103.636719 C 265.34375 106.847656 265.410156 110.425781 265.453125 113.878906 C 265.546875 121.039062 265.496094 127.660156 265.503906 129.300781 C 265.589844 147.75 266.621094 165.742188 266.707031 183.820312 C 266.761719 195.804688 266.402344 207.828125 265.074219 220.042969 L 261.574219 252.171875 C 259.367188 252.285156 246.835938 252.917969 231.84375 253.453125 C 227.679688 253.597656 223.324219 253.714844 218.953125 253.832031 C 208.210938 254.125 197.351562 254.296875 188.867188 254.378906 C 183.339844 254.433594 178.828125 254.457031 176.027344 254.308594 C 168.238281 253.910156 160.460938 253.503906 152.671875 253.242188 C 149.335938 253.132812 145.996094 253.128906 142.660156 253 C 137.898438 252.8125 133.144531 252.484375 128.382812 252.160156 C 126.042969 251.996094 120.894531 252.832031 117.066406 252.304688 C 115.304688 252.0625 113.824219 251.550781 113.136719 250.421875 C 111.78125 248.175781 111.152344 243.8125 110.878906 238.714844 C 110.335938 228.597656 111.265625 215.621094 111.199219 210.234375 C 111.007812 195.523438 111.003906 180.746094 111.101562 165.953125 C 111.246094 143.773438 111.617188 121.566406 111.90625 99.519531 Z M 112.027344 99.527344 " fill-opacity="1" fill-rule="evenodd"/></g><g clip-path="url(#7730254d22)"><path fill="#ffffff" d="M 196.121094 219.777344 C 196.121094 219.777344 194.628906 218.132812 195.820312 216.140625 C 196.878906 214.375 198.855469 214.105469 201.335938 213.847656 C 203.722656 213.59375 206.386719 213.699219 207.78125 215.046875 C 209.175781 216.398438 208.882812 218.28125 207.957031 219.121094 C 207.957031 219.121094 209.722656 221.535156 211.109375 222.25 C 211.109375 222.25 215.710938 219.46875 221.109375 221.226562 C 226.503906 222.988281 229.824219 227.878906 230.324219 231.695312 C 230.820312 235.507812 229.457031 236.515625 228.824219 236.898438 C 228.195312 237.277344 221.371094 238.84375 211.488281 238.867188 C 201.605469 238.890625 194.703125 237.644531 194.289062 237.113281 C 193.871094 236.582031 193.070312 227.289062 196.121094 219.777344 Z M 172.285156 213.773438 C 169.691406 213.035156 166.660156 212.964844 165.535156 214.488281 C 164.425781 215.980469 164.910156 217.386719 165.394531 218.003906 C 165.394531 218.003906 163.820312 219.875 161.585938 220.433594 C 161.585938 220.433594 158.714844 217.390625 152.773438 217.300781 C 146.832031 217.214844 142.757812 221.339844 141.480469 224.980469 C 140.203125 228.613281 140.625 230.125 141.199219 230.671875 C 141.691406 231.140625 146.222656 234.707031 156.15625 236.675781 C 166.089844 238.644531 175.304688 238.699219 175.777344 238.253906 C 176.25 237.804688 176.855469 234.25 177.265625 230.953125 C 177.679688 227.660156 177.554688 222.996094 176.964844 221.132812 C 176.964844 221.132812 178.417969 220.246094 178.394531 218.390625 C 178.367188 216.246094 176.195312 214.886719 172.285156 213.773438 Z M 172.285156 213.773438 " fill-opacity="1" fill-rule="evenodd"/></g><g clip-path="url(#79afb8ce32)"><path fill="#5d805f" d="M 198.765625 213.890625 C 198.476562 213.953125 198.199219 214.03125 197.9375 214.121094 C 196.925781 214.464844 196.109375 215.019531 195.539062 215.972656 C 194.457031 217.78125 195.382812 219.332031 195.75 219.828125 C 193.496094 225.503906 193.386719 232.125 193.644531 235.300781 C 193.648438 235.308594 193.648438 235.3125 193.648438 235.320312 C 193.664062 235.511719 193.679688 235.695312 193.699219 235.863281 C 193.757812 236.394531 193.828125 236.789062 193.894531 237.015625 C 193.9375 237.164062 193.988281 237.261719 194.027344 237.3125 C 194.074219 237.371094 194.15625 237.441406 194.28125 237.503906 C 194.460938 237.597656 194.769531 237.707031 195.207031 237.816406 C 197.511719 238.410156 203.542969 239.214844 211.488281 239.195312 C 218.4375 239.179688 223.878906 238.402344 226.738281 237.804688 C 228.015625 237.539062 228.796875 237.296875 228.996094 237.175781 C 229.667969 236.773438 231.175781 235.714844 230.648438 231.652344 C 230.136719 227.742188 226.742188 222.71875 221.210938 220.914062 C 216.277344 219.308594 211.996094 221.394531 211.109375 221.875 C 210.050781 221.25 208.824219 219.71875 208.386719 219.148438 C 209.25 218.128906 209.457031 216.214844 208.007812 214.8125 C 207.410156 214.234375 206.597656 213.863281 205.671875 213.648438 C 205.445312 213.597656 205.214844 213.554688 204.976562 213.523438 L 205.085938 215.28125 C 203.6875 193.425781 204.382812 171.027344 204.382812 171.027344 C 204.414062 169.3125 203.046875 167.890625 201.328125 167.859375 C 199.613281 167.828125 198.191406 169.195312 198.160156 170.910156 C 198.160156 170.910156 197.5 192.371094 198.765625 213.890625 Z M 169.199219 212.941406 C 168.636719 212.925781 168.09375 212.957031 167.59375 213.042969 C 166.589844 213.21875 165.765625 213.621094 165.269531 214.292969 C 164.160156 215.789062 164.503906 217.207031 164.976562 217.976562 C 164.546875 218.429688 163.308594 219.605469 161.679688 220.070312 C 161.023438 219.457031 158.105469 217.050781 152.78125 216.972656 C 146.671875 216.882812 142.484375 221.128906 141.171875 224.875 C 140.726562 226.140625 140.484375 227.15625 140.378906 227.96875 C 140.375 227.988281 140.375 228.003906 140.375 228.023438 C 140.300781 228.632812 140.304688 229.125 140.359375 229.523438 C 140.453125 230.222656 140.707031 230.652344 140.972656 230.910156 C 141.472656 231.382812 146.046875 235.003906 156.09375 236.996094 C 164.074219 238.578125 171.59375 238.929688 174.527344 238.777344 C 175.066406 238.75 175.460938 238.699219 175.683594 238.644531 C 175.847656 238.601562 175.953125 238.539062 176.003906 238.488281 C 176.164062 238.335938 176.367188 237.871094 176.546875 237.183594 C 176.578125 237.0625 176.613281 236.933594 176.644531 236.796875 C 176.644531 236.789062 176.644531 236.785156 176.648438 236.777344 C 176.984375 235.328125 177.328125 233.109375 177.59375 230.996094 C 177.992188 227.78125 177.886719 223.285156 177.34375 221.261719 C 177.777344 220.917969 178.742188 219.976562 178.722656 218.386719 C 178.707031 217.214844 178.121094 216.246094 176.988281 215.429688 C 176.558594 215.117188 176.042969 214.828125 175.449219 214.554688 C 180.660156 193.074219 180.492188 171 180.492188 171 C 180.507812 169.28125 179.128906 167.875 177.410156 167.859375 C 175.695312 167.839844 174.285156 169.222656 174.269531 170.9375 C 174.269531 170.9375 174.441406 192.234375 169.199219 212.941406 Z M 205.019531 214.257812 C 205.035156 214.472656 205.046875 214.683594 205.058594 214.898438 C 205.066406 214.984375 205.070312 215.070312 205.078125 215.15625 C 205.082031 215.21875 205.085938 215.285156 205.089844 215.351562 C 205.089844 215.421875 205.09375 215.492188 205.089844 215.5625 C 205.082031 215.726562 205.0625 215.886719 205.019531 216.046875 C 204.972656 216.21875 204.898438 216.382812 204.796875 216.527344 C 204.757812 216.578125 204.714844 216.632812 204.671875 216.679688 C 204.640625 216.710938 204.609375 216.742188 204.578125 216.773438 C 204.367188 216.964844 204.109375 217.097656 203.84375 217.195312 C 203.800781 217.210938 203.753906 217.226562 203.710938 217.238281 C 203.652344 217.257812 203.59375 217.273438 203.535156 217.289062 C 203.460938 217.308594 203.382812 217.328125 203.308594 217.34375 C 203.203125 217.367188 203.09375 217.382812 202.988281 217.402344 C 202.714844 217.441406 202.441406 217.46875 202.164062 217.488281 C 201.972656 217.5 201.78125 217.507812 201.59375 217.511719 C 201.453125 217.515625 201.316406 217.515625 201.179688 217.507812 C 201.078125 217.507812 200.976562 217.5 200.875 217.492188 C 200.796875 217.484375 200.722656 217.476562 200.648438 217.464844 C 200.589844 217.457031 200.535156 217.449219 200.476562 217.4375 C 200.433594 217.429688 200.390625 217.421875 200.347656 217.410156 C 200.070312 217.347656 199.800781 217.25 199.566406 217.085938 C 199.53125 217.058594 199.496094 217.03125 199.460938 217.003906 C 199.410156 216.960938 199.363281 216.917969 199.320312 216.871094 C 199.199219 216.738281 199.105469 216.585938 199.035156 216.421875 C 198.972656 216.269531 198.929688 216.109375 198.902344 215.945312 C 198.894531 215.882812 198.886719 215.816406 198.878906 215.75 C 198.875 215.683594 198.871094 215.617188 198.867188 215.550781 C 198.859375 215.464844 198.855469 215.378906 198.851562 215.289062 C 198.835938 215.074219 198.824219 214.859375 198.808594 214.644531 L 198.804688 214.550781 C 198.578125 214.605469 198.359375 214.667969 198.148438 214.738281 C 197.289062 215.035156 196.589844 215.496094 196.101562 216.308594 C 195.101562 217.976562 196.210938 219.375 196.351562 219.539062 C 196.46875 219.628906 197.285156 220.230469 198.886719 220.425781 C 199.066406 220.449219 199.191406 220.609375 199.171875 220.789062 C 199.148438 220.96875 198.984375 221.097656 198.804688 221.074219 C 197.542969 220.921875 196.714844 220.535156 196.277344 220.277344 C 194.195312 225.667969 194.050781 231.878906 194.28125 235.027344 C 195.402344 235.324219 200.839844 236.628906 209.753906 236.789062 C 209.933594 236.792969 210.078125 236.941406 210.074219 237.121094 C 210.070312 237.304688 209.921875 237.449219 209.742188 237.445312 C 201.253906 237.292969 195.886719 236.109375 194.34375 235.71875 C 194.347656 235.742188 194.347656 235.765625 194.351562 235.789062 C 194.410156 236.3125 194.523438 236.796875 194.550781 236.902344 C 194.597656 236.925781 194.710938 236.984375 194.820312 237.023438 C 195.15625 237.140625 195.683594 237.273438 196.382812 237.410156 C 199.164062 237.953125 204.597656 238.554688 211.488281 238.539062 C 218.375 238.523438 223.769531 237.753906 226.605469 237.164062 C 227.765625 236.925781 228.476562 236.726562 228.65625 236.617188 C 228.964844 236.429688 229.445312 236.078125 229.765625 235.277344 C 227.535156 236.183594 222.410156 237.25 213.8125 237.4375 C 213.632812 237.441406 213.484375 237.296875 213.480469 237.117188 C 213.476562 236.933594 213.617188 236.785156 213.800781 236.78125 C 222.945312 236.582031 228.09375 235.402344 229.964844 234.472656 C 229.976562 234.46875 229.988281 234.464844 229.996094 234.460938 C 230.121094 233.78125 230.148438 232.898438 229.996094 231.734375 C 229.511719 228.015625 226.265625 223.253906 221.007812 221.539062 C 215.757812 219.828125 211.28125 222.53125 211.28125 222.53125 L 211.277344 222.53125 C 211.277344 222.53125 209.28125 223.714844 207.410156 226.296875 C 207.304688 226.445312 207.101562 226.476562 206.953125 226.371094 C 206.808594 226.265625 206.773438 226.058594 206.882812 225.914062 C 208.296875 223.957031 209.785156 222.769531 210.503906 222.261719 C 209.460938 221.523438 208.335938 220.144531 207.890625 219.574219 C 207.433594 219.886719 206.4375 220.476562 205.195312 220.703125 C 205.019531 220.734375 204.847656 220.617188 204.816406 220.441406 C 204.78125 220.261719 204.898438 220.089844 205.078125 220.058594 C 206.554688 219.785156 207.648438 218.949219 207.746094 218.875 C 208.554688 218.125 208.78125 216.472656 207.554688 215.285156 C 207.035156 214.78125 206.328125 214.472656 205.523438 214.289062 C 205.359375 214.25 205.1875 214.21875 205.015625 214.191406 Z M 169.035156 213.59375 C 168.570312 213.585938 168.121094 213.617188 167.707031 213.6875 C 166.886719 213.832031 166.203125 214.136719 165.796875 214.683594 C 164.8125 216.007812 165.21875 217.253906 165.652344 217.800781 L 165.660156 217.808594 C 165.660156 217.808594 166.191406 218.523438 167.410156 219.125 C 167.574219 219.207031 167.640625 219.402344 167.558594 219.5625 C 167.480469 219.726562 167.28125 219.792969 167.121094 219.714844 C 166.246094 219.28125 165.6875 218.792969 165.390625 218.492188 C 164.898438 218.992188 163.738281 220.046875 162.21875 220.585938 C 162.867188 221.242188 164.15625 222.703125 165.296875 224.917969 C 165.382812 225.082031 165.316406 225.277344 165.15625 225.359375 C 164.996094 225.445312 164.800781 225.378906 164.714844 225.21875 C 163.199219 222.269531 161.410156 220.714844 161.371094 220.683594 L 161.359375 220.671875 C 161.355469 220.667969 161.351562 220.660156 161.34375 220.65625 C 161.28125 220.589844 158.480469 217.714844 152.769531 217.628906 C 146.996094 217.542969 143.03125 221.550781 141.789062 225.089844 C 141.386719 226.238281 141.15625 227.167969 141.046875 227.917969 C 141.609375 228.449219 144.414062 230.886719 150.496094 232.941406 C 150.667969 233 150.761719 233.183594 150.703125 233.355469 C 150.644531 233.527344 150.460938 233.621094 150.289062 233.5625 C 144.9375 231.753906 142.058594 229.648438 140.972656 228.730469 C 140.972656 228.816406 140.972656 228.898438 140.972656 228.976562 C 140.988281 229.75 141.179688 230.199219 141.425781 230.433594 C 141.914062 230.898438 146.398438 234.40625 156.222656 236.351562 C 164.132812 237.921875 171.585938 238.273438 174.492188 238.121094 C 175.019531 238.09375 175.484375 238.007812 175.574219 237.992188 C 175.597656 237.953125 175.625 237.898438 175.652344 237.832031 C 175.734375 237.644531 175.816406 237.382812 175.902344 237.058594 C 173.890625 237.132812 165.257812 237.277344 154.953125 234.878906 C 154.777344 234.839844 154.667969 234.664062 154.707031 234.488281 C 154.75 234.3125 154.925781 234.203125 155.101562 234.242188 C 165.695312 236.707031 174.503906 236.464844 176.0625 236.398438 C 176.378906 234.96875 176.695312 232.894531 176.941406 230.914062 C 177.324219 227.855469 177.246094 223.597656 176.75 221.578125 C 176.292969 221.730469 175.410156 221.90625 174.011719 221.75 C 173.832031 221.726562 173.703125 221.566406 173.722656 221.386719 C 173.742188 221.207031 173.90625 221.078125 174.085938 221.097656 C 175.980469 221.3125 176.78125 220.859375 176.796875 220.855469 C 176.824219 220.835938 178.085938 220.039062 178.066406 218.394531 C 178.054688 217.421875 177.542969 216.636719 176.605469 215.960938 C 176.230469 215.691406 175.792969 215.441406 175.292969 215.203125 L 175.289062 215.207031 C 175.203125 215.554688 175.117188 215.898438 175.027344 216.246094 C 175 216.355469 174.972656 216.460938 174.945312 216.570312 C 174.9375 216.605469 174.925781 216.640625 174.917969 216.675781 C 174.90625 216.714844 174.894531 216.753906 174.878906 216.789062 C 174.84375 216.890625 174.792969 216.988281 174.730469 217.074219 C 174.667969 217.164062 174.589844 217.246094 174.503906 217.316406 C 174.480469 217.335938 174.453125 217.355469 174.425781 217.375 C 174.234375 217.503906 174.011719 217.574219 173.785156 217.617188 C 173.75 217.625 173.710938 217.628906 173.671875 217.636719 C 173.625 217.644531 173.574219 217.648438 173.523438 217.652344 C 173.460938 217.660156 173.394531 217.664062 173.328125 217.664062 C 173.242188 217.667969 173.15625 217.667969 173.074219 217.664062 C 172.964844 217.660156 172.859375 217.65625 172.753906 217.644531 C 172.453125 217.621094 172.152344 217.574219 171.855469 217.515625 C 171.777344 217.5 171.703125 217.484375 171.625 217.46875 C 171.566406 217.457031 171.507812 217.441406 171.453125 217.429688 C 171.378906 217.414062 171.308594 217.394531 171.238281 217.375 C 170.894531 217.28125 170.5625 217.160156 170.238281 217.011719 C 169.980469 216.890625 169.726562 216.746094 169.492188 216.578125 C 169.386719 216.503906 169.285156 216.421875 169.191406 216.335938 C 169.109375 216.261719 169.03125 216.179688 168.957031 216.09375 C 168.851562 215.96875 168.757812 215.828125 168.695312 215.671875 C 168.664062 215.59375 168.640625 215.507812 168.625 215.417969 C 168.613281 215.328125 168.613281 215.230469 168.628906 215.140625 C 168.632812 215.117188 168.636719 215.09375 168.644531 215.070312 C 168.648438 215.039062 168.65625 215.011719 168.664062 214.984375 C 168.671875 214.964844 168.675781 214.941406 168.683594 214.921875 C 168.707031 214.839844 168.726562 214.753906 168.75 214.671875 C 168.84375 214.316406 168.9375 213.960938 169.03125 213.605469 Z M 169.035156 213.59375 " fill-opacity="1" fill-rule="evenodd"/></g><g clip-path="url(#1ab3313a7a)"><path fill="#5d805f" d="M 188.300781 106.527344 C 190.148438 106.511719 192.066406 106.582031 193.894531 106.84375 C 197.847656 107.40625 201.542969 108.8125 205.027344 110.734375 C 208.515625 112.65625 211.515625 115.242188 214.089844 118.273438 C 217.179688 121.914062 219.546875 126.082031 220.867188 130.679688 C 221.734375 133.707031 222.199219 136.894531 222.230469 140.046875 C 222.234375 140.660156 222.265625 141.292969 222.214844 141.90625 C 222.121094 143.035156 221.875 144.121094 221.628906 145.222656 C 220.871094 148.632812 219.707031 151.894531 218.347656 155.105469 C 216.9375 158.441406 215.332031 161.664062 213.558594 164.816406 C 211.851562 167.855469 210.015625 170.800781 208.117188 173.722656 C 207.242188 175.070312 206.382812 176.425781 205.472656 177.746094 C 204.257812 179.503906 202.992188 181.21875 201.734375 182.945312 C 200.5625 184.546875 199.410156 186.164062 198.199219 187.738281 C 197.207031 189.035156 196.144531 190.289062 195.132812 191.574219 C 194.226562 192.726562 193.304688 193.871094 192.371094 195 C 191.859375 195.621094 191.328125 196.355469 190.703125 196.867188 C 190.375 197.136719 190.058594 197.300781 189.652344 197.414062 L 188.984375 197.5 C 188.414062 197.515625 187.785156 197.316406 187.363281 196.925781 C 186.558594 196.179688 185.847656 195.238281 185.144531 194.394531 C 183.480469 192.390625 181.886719 190.335938 180.300781 188.269531 C 177.289062 184.355469 174.339844 180.398438 171.578125 176.304688 C 170.578125 174.816406 169.640625 173.292969 168.675781 171.785156 C 163.953125 164.410156 159.609375 156.535156 157.128906 148.09375 C 156.457031 145.808594 155.820312 143.460938 155.75 141.066406 C 155.488281 132.121094 158.992188 123.316406 165.132812 116.839844 C 165.972656 115.953125 166.875 115.15625 167.804688 114.371094 C 172.265625 110.609375 177.507812 108.042969 183.265625 107 C 184.9375 106.695312 186.601562 106.574219 188.300781 106.527344 Z M 188.546875 123.992188 C 187.910156 124.015625 187.273438 124.03125 186.640625 124.128906 C 183.324219 124.636719 179.964844 126.34375 177.679688 128.804688 C 174.703125 132.011719 173.234375 136.054688 173.390625 140.414062 C 173.53125 144.351562 175.273438 148.230469 178.175781 150.902344 C 181.242188 153.71875 185.234375 155.363281 189.429688 155.183594 C 190.246094 155.152344 191.042969 155.105469 191.851562 154.960938 C 195.257812 154.34375 198.316406 152.613281 200.660156 150.066406 C 203.539062 146.933594 204.808594 142.878906 204.625 138.671875 C 204.449219 134.699219 202.660156 130.769531 199.707031 128.101562 C 197.589844 126.1875 194.894531 124.765625 192.082031 124.234375 C 190.925781 124.019531 189.71875 123.957031 188.546875 123.992188 Z M 188.546875 123.992188 " fill-opacity="1" fill-rule="nonzero"/></g><g fill="#435d44" fill-opacity="1"><g transform="translate(141.037577, 279.338389)"><g><path d="M 1.25 -11.75 L 4.234375 -11.75 C 5.921875 -11.75 7.039062 -11.460938 7.59375 -10.890625 C 8.144531 -10.328125 8.421875 -9.648438 8.421875 -8.859375 C 8.421875 -8.328125 8.300781 -7.820312 8.0625 -7.34375 C 7.832031 -6.875 7.460938 -6.519531 6.953125 -6.28125 C 7.710938 -6.09375 8.269531 -5.757812 8.625 -5.28125 C 8.976562 -4.800781 9.15625 -4.234375 9.15625 -3.578125 C 9.15625 -2.898438 9.046875 -2.300781 8.828125 -1.78125 C 8.617188 -1.269531 8.175781 -0.84375 7.5 -0.5 C 6.832031 -0.164062 5.867188 0 4.609375 0 L 1.25 0 Z M 4.53125 -6.765625 C 5.28125 -6.765625 5.816406 -6.945312 6.140625 -7.3125 C 6.460938 -7.675781 6.625 -8.144531 6.625 -8.71875 C 6.625 -9.726562 5.894531 -10.234375 4.4375 -10.234375 L 3 -10.234375 L 3 -6.765625 Z M 4.84375 -1.5 C 5.8125 -1.5 6.460938 -1.691406 6.796875 -2.078125 C 7.140625 -2.472656 7.3125 -2.96875 7.3125 -3.5625 C 7.3125 -4.125 7.117188 -4.5625 6.734375 -4.875 C 6.347656 -5.1875 5.765625 -5.34375 4.984375 -5.34375 L 3 -5.34375 L 3 -1.5 Z M 4.84375 -1.5 "/></g></g></g><g fill="#435d44" fill-opacity="1"><g transform="translate(151.043787, 279.338389)"><g/></g></g><g fill="#435d44" fill-opacity="1"><g transform="translate(154.959955, 279.338389)"><g><path d="M 5.546875 -11.765625 L 11.203125 0 L 9.140625 0 L 8.140625 -2.296875 L 2.75 -2.296875 L 1.75 0 L -0.25 0 L 5.375 -11.765625 Z M 4.75 -6.765625 L 3.46875 -3.921875 L 7.4375 -3.921875 L 6.171875 -6.75 L 5.484375 -8.359375 L 5.453125 -8.359375 Z M 4.75 -6.765625 "/></g></g></g><g fill="#435d44" fill-opacity="1"><g transform="translate(165.909238, 279.338389)"><g/></g></g><g fill="#435d44" fill-opacity="1"><g transform="translate(169.825405, 279.338389)"><g><path d="M 6.734375 0.15625 C 5.566406 0.15625 4.523438 -0.109375 3.609375 -0.640625 C 2.691406 -1.171875 1.972656 -1.898438 1.453125 -2.828125 C 0.941406 -3.765625 0.6875 -4.816406 0.6875 -5.984375 C 0.6875 -7.109375 0.945312 -8.125 1.46875 -9.03125 C 1.988281 -9.9375 2.710938 -10.644531 3.640625 -11.15625 C 4.566406 -11.664062 5.613281 -11.921875 6.78125 -11.921875 C 7.40625 -11.921875 7.96875 -11.863281 8.46875 -11.75 C 8.976562 -11.644531 9.394531 -11.519531 9.71875 -11.375 C 10.039062 -11.226562 10.257812 -11.101562 10.375 -11 L 9.671875 -9.5 C 9.003906 -10.03125 8.03125 -10.296875 6.75 -10.296875 C 5.894531 -10.296875 5.148438 -10.109375 4.515625 -9.734375 C 3.890625 -9.359375 3.410156 -8.847656 3.078125 -8.203125 C 2.753906 -7.566406 2.59375 -6.859375 2.59375 -6.078125 C 2.59375 -5.179688 2.769531 -4.378906 3.125 -3.671875 C 3.476562 -2.972656 3.972656 -2.425781 4.609375 -2.03125 C 5.242188 -1.644531 5.960938 -1.453125 6.765625 -1.453125 C 7.265625 -1.453125 7.742188 -1.515625 8.203125 -1.640625 C 8.660156 -1.765625 9.046875 -1.957031 9.359375 -2.21875 L 9.359375 -4.484375 L 6.953125 -4.484375 L 6.953125 -6.140625 L 11.140625 -6.140625 L 11.140625 -1.53125 C 10.753906 -1.050781 10.175781 -0.648438 9.40625 -0.328125 C 8.632812 -0.00390625 7.742188 0.15625 6.734375 0.15625 Z M 6.734375 0.15625 "/></g></g></g><g fill="#435d44" fill-opacity="1"><g transform="translate(181.717762, 279.338389)"><g/></g></g><g fill="#435d44" fill-opacity="1"><g transform="translate(185.633929, 279.338389)"><g><path d="M 1.25 -11.75 L 3.84375 -11.75 C 5.300781 -11.75 6.367188 -11.4375 7.046875 -10.8125 C 7.722656 -10.1875 8.0625 -9.332031 8.0625 -8.25 C 8.0625 -6.988281 7.691406 -6.019531 6.953125 -5.34375 C 6.210938 -4.675781 5.117188 -4.34375 3.671875 -4.34375 L 3.046875 -4.34375 L 3.046875 0 L 1.25 0 Z M 3.71875 -5.9375 C 4.65625 -5.9375 5.3125 -6.140625 5.6875 -6.546875 C 6.0625 -6.960938 6.25 -7.46875 6.25 -8.0625 C 6.25 -8.6875 6.066406 -9.195312 5.703125 -9.59375 C 5.335938 -9.988281 4.734375 -10.1875 3.890625 -10.1875 L 3.046875 -10.1875 L 3.046875 -5.9375 Z M 3.71875 -5.9375 "/></g></g></g><g fill="#435d44" fill-opacity="1"><g transform="translate(194.105635, 279.338389)"><g/></g></g><g fill="#435d44" fill-opacity="1"><g transform="translate(198.021803, 279.338389)"><g><path d="M 5.546875 -11.765625 L 11.203125 0 L 9.140625 0 L 8.140625 -2.296875 L 2.75 -2.296875 L 1.75 0 L -0.25 0 L 5.375 -11.765625 Z M 4.75 -6.765625 L 3.46875 -3.921875 L 7.4375 -3.921875 L 6.171875 -6.75 L 5.484375 -8.359375 L 5.453125 -8.359375 Z M 4.75 -6.765625 "/></g></g></g><g fill="#435d44" fill-opacity="1"><g transform="translate(208.971086, 279.338389)"><g/></g></g><g fill="#435d44" fill-opacity="1"><g transform="translate(212.887254, 279.338389)"><g><path d="M 6.578125 0.109375 C 5.367188 0.109375 4.316406 -0.160156 3.421875 -0.703125 C 2.535156 -1.242188 1.859375 -1.96875 1.390625 -2.875 C 0.921875 -3.789062 0.6875 -4.796875 0.6875 -5.890625 C 0.6875 -7.054688 0.9375 -8.097656 1.4375 -9.015625 C 1.945312 -9.929688 2.660156 -10.644531 3.578125 -11.15625 C 4.492188 -11.675781 5.535156 -11.9375 6.703125 -11.9375 C 7.222656 -11.9375 7.707031 -11.878906 8.15625 -11.765625 C 8.613281 -11.660156 8.988281 -11.535156 9.28125 -11.390625 C 9.582031 -11.242188 9.78125 -11.125 9.875 -11.03125 L 9.09375 -9.4375 C 8.445312 -10.007812 7.597656 -10.296875 6.546875 -10.296875 C 5.816406 -10.296875 5.148438 -10.113281 4.546875 -9.75 C 3.953125 -9.382812 3.484375 -8.863281 3.140625 -8.1875 C 2.804688 -7.519531 2.640625 -6.742188 2.640625 -5.859375 C 2.640625 -5.054688 2.789062 -4.320312 3.09375 -3.65625 C 3.394531 -3 3.835938 -2.476562 4.421875 -2.09375 C 5.015625 -1.707031 5.710938 -1.515625 6.515625 -1.515625 C 7.453125 -1.515625 8.359375 -1.78125 9.234375 -2.3125 L 9.765625 -0.796875 C 9.535156 -0.585938 9.109375 -0.382812 8.484375 -0.1875 C 7.859375 0.0078125 7.222656 0.109375 6.578125 0.109375 Z M 6.578125 0.109375 "/></g></g></g><g fill="#435d44" fill-opacity="1"><g transform="translate(223.261105, 279.338389)"><g/></g></g><g fill="#435d44" fill-opacity="1"><g transform="translate(227.177273, 279.338389)"><g><path d="M 3.96875 -5.265625 L 3 -4.078125 L 3 0 L 1.25 0 L 1.25 -11.75 L 3 -11.75 L 3 -6.5 L 7.03125 -11.75 L 9.171875 -11.75 L 5.125 -6.578125 L 9.75 0 L 7.5625 0 Z M 3.96875 -5.265625 "/></g></g></g><g fill="#435d44" fill-opacity="1"><g transform="translate(127.442277, 291.019765)"><g><path d="M 1.5625 -0.125 C 1.5625 -0.144531 1.570312 -0.15625 1.59375 -0.15625 L 1.703125 -0.15625 C 1.960938 -0.15625 2.164062 -0.207031 2.3125 -0.3125 C 2.46875 -0.425781 2.546875 -0.554688 2.546875 -0.703125 L 2.546875 -5.03125 C 2.546875 -5.082031 2.535156 -5.109375 2.515625 -5.109375 C 2.492188 -5.117188 2.46875 -5.128906 2.4375 -5.140625 L 0.9375 -5.140625 C 0.695312 -5.085938 0.539062 -4.898438 0.46875 -4.578125 C 0.425781 -4.410156 0.398438 -4.300781 0.390625 -4.25 C 0.378906 -4.195312 0.363281 -4.171875 0.34375 -4.171875 L 0.28125 -4.171875 C 0.257812 -4.171875 0.25 -4.175781 0.25 -4.1875 L 0.25 -4.328125 L 0.390625 -5.546875 C 0.410156 -5.617188 0.4375 -5.65625 0.46875 -5.65625 C 0.507812 -5.65625 0.550781 -5.628906 0.59375 -5.578125 C 0.632812 -5.535156 0.710938 -5.515625 0.828125 -5.515625 L 5.046875 -5.515625 C 5.148438 -5.515625 5.210938 -5.523438 5.234375 -5.546875 C 5.265625 -5.578125 5.289062 -5.601562 5.3125 -5.625 C 5.332031 -5.644531 5.359375 -5.65625 5.390625 -5.65625 C 5.421875 -5.65625 5.441406 -5.640625 5.453125 -5.609375 C 5.460938 -5.585938 5.46875 -5.566406 5.46875 -5.546875 L 5.625 -4.328125 L 5.625 -4.1875 C 5.625 -4.175781 5.613281 -4.171875 5.59375 -4.171875 L 5.53125 -4.171875 C 5.507812 -4.171875 5.492188 -4.191406 5.484375 -4.234375 C 5.441406 -4.492188 5.378906 -4.695312 5.296875 -4.84375 C 5.222656 -5 5.101562 -5.097656 4.9375 -5.140625 L 3.421875 -5.140625 C 3.390625 -5.128906 3.363281 -5.117188 3.34375 -5.109375 C 3.320312 -5.109375 3.3125 -5.082031 3.3125 -5.03125 L 3.3125 -0.703125 C 3.3125 -0.554688 3.390625 -0.425781 3.546875 -0.3125 C 3.703125 -0.207031 3.90625 -0.15625 4.15625 -0.15625 L 4.28125 -0.15625 C 4.300781 -0.15625 4.3125 -0.144531 4.3125 -0.125 L 4.3125 -0.03125 C 4.3125 -0.0078125 4.300781 0 4.28125 0 L 1.59375 0 C 1.570312 0 1.5625 -0.0078125 1.5625 -0.03125 Z M 1.5625 -0.125 "/></g></g></g><g fill="#435d44" fill-opacity="1"><g transform="translate(137.418044, 291.019765)"><g><path d="M 0.203125 0 C 0.179688 0 0.171875 -0.0234375 0.171875 -0.078125 L 0.171875 -0.125 C 0.171875 -0.144531 0.179688 -0.15625 0.203125 -0.15625 C 0.222656 -0.15625 0.25 -0.15625 0.28125 -0.15625 C 0.3125 -0.164062 0.34375 -0.171875 0.375 -0.171875 C 0.414062 -0.179688 0.453125 -0.1875 0.484375 -0.1875 C 0.515625 -0.195312 0.535156 -0.207031 0.546875 -0.21875 C 0.816406 -0.269531 0.953125 -0.421875 0.953125 -0.671875 L 0.953125 -4.796875 C 0.953125 -5.015625 0.863281 -5.171875 0.6875 -5.265625 C 0.570312 -5.328125 0.457031 -5.359375 0.34375 -5.359375 L 0.1875 -5.359375 C 0.164062 -5.359375 0.15625 -5.367188 0.15625 -5.390625 L 0.15625 -5.484375 C 0.15625 -5.503906 0.171875 -5.515625 0.203125 -5.515625 L 2.34375 -5.5625 L 2.75 -5.5625 C 3.207031 -5.53125 3.59375 -5.363281 3.90625 -5.0625 C 4.21875 -4.757812 4.375 -4.382812 4.375 -3.9375 C 4.375 -3.5 4.1875 -3.15625 3.8125 -2.90625 C 3.695312 -2.832031 3.570312 -2.765625 3.4375 -2.703125 L 4.625 -0.765625 C 4.832031 -0.429688 5.109375 -0.195312 5.453125 -0.0625 C 5.484375 -0.0507812 5.5 -0.03125 5.5 0 C 5.5 0.0625 5.457031 0.09375 5.375 0.09375 C 4.78125 0.09375 4.3125 -0.128906 3.96875 -0.578125 C 3.894531 -0.671875 3.820312 -0.78125 3.75 -0.90625 L 2.734375 -2.484375 L 1.796875 -2.53125 L 1.765625 -2.53125 C 1.734375 -2.53125 1.71875 -2.515625 1.71875 -2.484375 L 1.71875 -0.671875 C 1.71875 -0.535156 1.753906 -0.429688 1.828125 -0.359375 C 1.910156 -0.285156 2.050781 -0.238281 2.25 -0.21875 C 2.300781 -0.207031 2.363281 -0.191406 2.4375 -0.171875 C 2.519531 -0.160156 2.570312 -0.15625 2.59375 -0.15625 C 2.625 -0.15625 2.640625 -0.144531 2.640625 -0.125 L 2.640625 -0.03125 C 2.640625 -0.0078125 2.628906 0 2.609375 0 Z M 2.03125 -5.359375 C 2 -5.359375 1.960938 -5.359375 1.921875 -5.359375 C 1.890625 -5.359375 1.847656 -5.359375 1.796875 -5.359375 C 1.742188 -5.359375 1.71875 -5.335938 1.71875 -5.296875 L 1.71875 -2.8125 C 1.726562 -2.75 1.753906 -2.71875 1.796875 -2.71875 L 2.1875 -2.703125 C 2.925781 -2.703125 3.367188 -2.960938 3.515625 -3.484375 C 3.566406 -3.640625 3.59375 -3.828125 3.59375 -4.046875 C 3.59375 -4.453125 3.460938 -4.773438 3.203125 -5.015625 C 2.953125 -5.253906 2.625 -5.375 2.21875 -5.375 C 2.1875 -5.375 2.15625 -5.367188 2.125 -5.359375 C 2.09375 -5.359375 2.0625 -5.359375 2.03125 -5.359375 Z M 2.03125 -5.359375 "/></g></g></g><g fill="#435d44" fill-opacity="1"><g transform="translate(147.069704, 291.019765)"><g><path d="M 2.078125 -0.03125 C 2.078125 -0.0078125 2.066406 0 2.046875 0 L 0.046875 0 C 0.0234375 0 0.015625 -0.0078125 0.015625 -0.03125 L 0.015625 -0.125 C 0.015625 -0.144531 0.0351562 -0.15625 0.078125 -0.15625 C 0.429688 -0.175781 0.671875 -0.367188 0.796875 -0.734375 L 2.390625 -5.34375 C 2.390625 -5.34375 2.390625 -5.347656 2.390625 -5.359375 L 2.34375 -5.484375 C 2.34375 -5.503906 2.347656 -5.515625 2.359375 -5.515625 L 3.140625 -5.515625 C 3.148438 -5.503906 3.160156 -5.5 3.171875 -5.5 C 3.179688 -5.5 3.1875 -5.492188 3.1875 -5.484375 L 4.84375 -0.84375 C 4.875 -0.769531 4.898438 -0.703125 4.921875 -0.640625 C 4.953125 -0.585938 4.976562 -0.539062 5 -0.5 C 5.0625 -0.382812 5.164062 -0.300781 5.3125 -0.25 C 5.4375 -0.1875 5.546875 -0.15625 5.640625 -0.15625 C 5.660156 -0.15625 5.671875 -0.144531 5.671875 -0.125 L 5.671875 -0.03125 C 5.671875 -0.0078125 5.660156 0 5.640625 0 L 3.25 0 C 3.226562 0 3.21875 -0.0078125 3.21875 -0.03125 L 3.21875 -0.125 C 3.21875 -0.144531 3.265625 -0.15625 3.359375 -0.15625 C 3.460938 -0.164062 3.546875 -0.175781 3.609375 -0.1875 C 3.960938 -0.21875 4.140625 -0.335938 4.140625 -0.546875 C 4.140625 -0.566406 4.140625 -0.585938 4.140625 -0.609375 L 3.546875 -2.265625 C 3.546875 -2.273438 3.539062 -2.285156 3.53125 -2.296875 C 3.5 -2.390625 3.445312 -2.4375 3.375 -2.4375 L 1.984375 -2.4375 C 1.898438 -2.4375 1.835938 -2.394531 1.796875 -2.3125 C 1.785156 -2.289062 1.78125 -2.28125 1.78125 -2.28125 L 1.203125 -0.5625 L 1.203125 -0.53125 C 1.203125 -0.457031 1.238281 -0.394531 1.3125 -0.34375 C 1.46875 -0.21875 1.679688 -0.15625 1.953125 -0.15625 L 2.046875 -0.15625 C 2.066406 -0.15625 2.078125 -0.144531 2.078125 -0.125 Z M 3.234375 -2.875 C 3.285156 -2.875 3.3125 -2.890625 3.3125 -2.921875 C 3.3125 -2.941406 3.304688 -2.96875 3.296875 -3 L 2.703125 -4.59375 C 2.679688 -4.664062 2.664062 -4.703125 2.65625 -4.703125 C 2.632812 -4.703125 2.613281 -4.664062 2.59375 -4.59375 L 2.046875 -3 C 2.035156 -2.96875 2.03125 -2.9375 2.03125 -2.90625 C 2.03125 -2.882812 2.046875 -2.875 2.078125 -2.875 Z M 3.234375 -2.875 "/></g></g></g><g fill="#435d44" fill-opacity="1"><g transform="translate(156.869751, 291.019765)"><g><path d="M 5.859375 -5.390625 C 5.859375 -5.367188 5.847656 -5.359375 5.828125 -5.359375 L 5.6875 -5.359375 C 5.351562 -5.285156 5.109375 -5.015625 4.953125 -4.546875 C 4.910156 -4.421875 4.867188 -4.296875 4.828125 -4.171875 L 3.296875 -0.03125 C 3.265625 0.03125 3.234375 0.0664062 3.203125 0.078125 C 3.171875 0.0976562 3.125 0.109375 3.0625 0.109375 L 2.875 0.109375 C 2.8125 0.109375 2.773438 0.078125 2.765625 0.015625 L 0.703125 -4.96875 C 0.617188 -5.175781 0.410156 -5.300781 0.078125 -5.34375 C 0.0664062 -5.351562 0.0507812 -5.359375 0.03125 -5.359375 C 0.0195312 -5.359375 0.015625 -5.367188 0.015625 -5.390625 L 0.015625 -5.484375 C 0.015625 -5.503906 0.0234375 -5.515625 0.046875 -5.515625 L 2.359375 -5.515625 C 2.378906 -5.515625 2.390625 -5.503906 2.390625 -5.484375 L 2.390625 -5.390625 C 2.390625 -5.367188 2.378906 -5.359375 2.359375 -5.359375 L 2.296875 -5.359375 C 2.234375 -5.347656 2.160156 -5.335938 2.078125 -5.328125 C 1.742188 -5.285156 1.578125 -5.148438 1.578125 -4.921875 C 1.578125 -4.847656 1.59375 -4.773438 1.625 -4.703125 L 3.109375 -1.09375 C 3.128906 -1.039062 3.15625 -1.039062 3.1875 -1.09375 L 4.546875 -4.78125 C 4.566406 -4.832031 4.578125 -4.894531 4.578125 -4.96875 C 4.578125 -5.039062 4.546875 -5.109375 4.484375 -5.171875 C 4.421875 -5.234375 4.359375 -5.269531 4.296875 -5.28125 C 4.242188 -5.289062 4.195312 -5.296875 4.15625 -5.296875 C 4.125 -5.304688 4.070312 -5.316406 4 -5.328125 C 3.925781 -5.347656 3.878906 -5.359375 3.859375 -5.359375 C 3.835938 -5.359375 3.828125 -5.367188 3.828125 -5.390625 L 3.828125 -5.484375 C 3.828125 -5.503906 3.835938 -5.515625 3.859375 -5.515625 L 5.828125 -5.515625 C 5.847656 -5.515625 5.859375 -5.503906 5.859375 -5.484375 Z M 5.859375 -5.390625 "/></g></g></g><g fill="#435d44" fill-opacity="1"><g transform="translate(166.857232, 291.019765)"><g><path d="M 0.03125 -0.03125 L 0.03125 -0.140625 C 0.03125 -0.160156 0.0390625 -0.171875 0.0625 -0.171875 L 0.140625 -0.171875 C 0.253906 -0.179688 0.367188 -0.1875 0.484375 -0.1875 C 0.597656 -0.1875 0.703125 -0.203125 0.796875 -0.234375 C 1.003906 -0.296875 1.109375 -0.453125 1.109375 -0.703125 L 1.109375 -4.8125 C 1.109375 -5.070312 0.957031 -5.238281 0.65625 -5.3125 C 0.570312 -5.320312 0.484375 -5.335938 0.390625 -5.359375 L 0.3125 -5.359375 C 0.289062 -5.359375 0.28125 -5.367188 0.28125 -5.390625 L 0.28125 -5.484375 C 0.28125 -5.503906 0.289062 -5.515625 0.3125 -5.515625 L 4.03125 -5.515625 C 4.070312 -5.515625 4.101562 -5.503906 4.125 -5.484375 C 4.144531 -5.460938 4.160156 -5.425781 4.171875 -5.375 L 4.234375 -4.234375 C 4.234375 -4.210938 4.210938 -4.203125 4.171875 -4.203125 C 4.140625 -4.203125 4.113281 -4.210938 4.09375 -4.234375 C 4.082031 -4.265625 4.0625 -4.359375 4.03125 -4.515625 C 4.007812 -4.679688 3.960938 -4.816406 3.890625 -4.921875 C 3.828125 -5.035156 3.71875 -5.109375 3.5625 -5.140625 L 1.921875 -5.140625 C 1.890625 -5.140625 1.875 -5.125 1.875 -5.09375 L 1.875 -3.0625 C 1.875 -3.039062 1.890625 -3.03125 1.921875 -3.03125 L 3.265625 -3.03125 C 3.617188 -3.03125 3.796875 -3.234375 3.796875 -3.640625 C 3.796875 -3.660156 3.804688 -3.671875 3.828125 -3.671875 L 3.921875 -3.671875 C 3.941406 -3.671875 3.953125 -3.660156 3.953125 -3.640625 L 3.953125 -1.96875 C 3.953125 -1.945312 3.941406 -1.9375 3.921875 -1.9375 L 3.828125 -1.9375 C 3.804688 -1.9375 3.796875 -1.945312 3.796875 -1.96875 C 3.796875 -2.351562 3.679688 -2.578125 3.453125 -2.640625 C 3.390625 -2.648438 3.320312 -2.65625 3.25 -2.65625 L 1.921875 -2.65625 C 1.890625 -2.65625 1.875 -2.644531 1.875 -2.625 L 1.875 -0.71875 C 1.875 -0.519531 1.960938 -0.410156 2.140625 -0.390625 C 2.191406 -0.378906 2.25 -0.375 2.3125 -0.375 L 3.609375 -0.375 C 3.878906 -0.375 4.085938 -0.492188 4.234375 -0.734375 C 4.335938 -0.898438 4.40625 -1.09375 4.4375 -1.3125 C 4.4375 -1.382812 4.472656 -1.421875 4.546875 -1.421875 C 4.578125 -1.421875 4.59375 -1.40625 4.59375 -1.375 L 4.46875 -0.0625 C 4.445312 -0.0195312 4.425781 0 4.40625 0 L 0.0625 0 C 0.0390625 0 0.03125 -0.0078125 0.03125 -0.03125 Z M 0.03125 -0.03125 "/></g></g></g><g fill="#435d44" fill-opacity="1"><g transform="translate(175.903633, 291.019765)"><g><path d="M 0.1875 0 C 0.164062 0 0.15625 -0.0078125 0.15625 -0.03125 L 0.15625 -0.125 C 0.15625 -0.144531 0.164062 -0.15625 0.1875 -0.15625 L 0.28125 -0.15625 C 0.507812 -0.15625 0.707031 -0.203125 0.875 -0.296875 C 0.9375 -0.335938 0.988281 -0.398438 1.03125 -0.484375 C 1.082031 -0.566406 1.109375 -0.65625 1.109375 -0.75 L 1.109375 -4.890625 C 1.109375 -5.046875 1.003906 -5.171875 0.796875 -5.265625 C 0.648438 -5.328125 0.492188 -5.359375 0.328125 -5.359375 L 0.234375 -5.359375 C 0.210938 -5.359375 0.203125 -5.367188 0.203125 -5.390625 L 0.203125 -5.484375 C 0.203125 -5.503906 0.210938 -5.515625 0.234375 -5.515625 L 2.890625 -5.515625 C 2.910156 -5.515625 2.921875 -5.503906 2.921875 -5.484375 L 2.921875 -5.390625 C 2.921875 -5.367188 2.910156 -5.359375 2.890625 -5.359375 L 2.71875 -5.359375 C 2.445312 -5.359375 2.207031 -5.316406 2 -5.234375 C 1.945312 -5.210938 1.910156 -5.175781 1.890625 -5.125 C 1.867188 -5.082031 1.859375 -5.003906 1.859375 -4.890625 L 1.859375 -0.5625 C 1.867188 -0.507812 1.894531 -0.460938 1.9375 -0.421875 C 1.976562 -0.390625 2.023438 -0.375 2.078125 -0.375 L 3.625 -0.375 C 3.851562 -0.375 4.078125 -0.507812 4.296875 -0.78125 C 4.359375 -0.851562 4.429688 -0.945312 4.515625 -1.0625 C 4.609375 -1.1875 4.664062 -1.257812 4.6875 -1.28125 C 4.769531 -1.34375 4.8125 -1.34375 4.8125 -1.28125 C 4.8125 -1.257812 4.804688 -1.242188 4.796875 -1.234375 L 4.21875 -0.078125 C 4.1875 -0.0234375 4.15625 0 4.125 0 Z M 0.1875 0 "/></g></g></g><g fill="#435d44" fill-opacity="1"><g transform="translate(184.852408, 291.019765)"><g/></g></g><g fill="#435d44" fill-opacity="1"><g transform="translate(191.110699, 291.019765)"><g><path d="M 5.453125 -0.375 C 5.472656 -0.375 5.484375 -0.347656 5.484375 -0.296875 C 5.484375 -0.253906 5.476562 -0.226562 5.46875 -0.21875 C 5.113281 0.0078125 4.804688 0.125 4.546875 0.125 C 4.296875 0.125 4.082031 0.00390625 3.90625 -0.234375 C 3.8125 -0.347656 3.722656 -0.46875 3.640625 -0.59375 C 3.554688 -0.726562 3.488281 -0.832031 3.4375 -0.90625 C 2.695312 -0.226562 2.046875 0.109375 1.484375 0.109375 C 1.109375 0.109375 0.78125 -0.046875 0.5 -0.359375 C 0.226562 -0.671875 0.09375 -1.023438 0.09375 -1.421875 C 0.09375 -1.960938 0.390625 -2.398438 0.984375 -2.734375 C 1.160156 -2.835938 1.351562 -2.929688 1.5625 -3.015625 C 1.269531 -3.304688 1.085938 -3.578125 1.015625 -3.828125 C 0.992188 -3.921875 0.984375 -4.039062 0.984375 -4.1875 C 0.984375 -4.46875 1.097656 -4.691406 1.328125 -4.859375 C 1.566406 -5.035156 1.832031 -5.125 2.125 -5.125 C 2.425781 -5.125 2.6875 -5.035156 2.90625 -4.859375 C 3.125 -4.691406 3.234375 -4.460938 3.234375 -4.171875 C 3.234375 -3.835938 2.988281 -3.519531 2.5 -3.21875 C 2.4375 -3.1875 2.398438 -3.164062 2.390625 -3.15625 C 2.390625 -3.15625 2.390625 -3.144531 2.390625 -3.125 C 2.390625 -3.113281 2.40625 -3.09375 2.4375 -3.0625 C 2.46875 -3.039062 2.5 -3.007812 2.53125 -2.96875 C 2.570312 -2.9375 2.628906 -2.882812 2.703125 -2.8125 C 2.773438 -2.75 2.847656 -2.6875 2.921875 -2.625 C 2.992188 -2.570312 3.140625 -2.398438 3.359375 -2.109375 C 3.585938 -1.828125 3.710938 -1.6875 3.734375 -1.6875 C 3.753906 -1.6875 3.769531 -1.695312 3.78125 -1.71875 L 4.6875 -3.078125 C 4.75 -3.171875 4.78125 -3.253906 4.78125 -3.328125 C 4.78125 -3.398438 4.753906 -3.445312 4.703125 -3.46875 C 4.660156 -3.5 4.613281 -3.519531 4.5625 -3.53125 C 4.507812 -3.539062 4.460938 -3.550781 4.421875 -3.5625 C 4.378906 -3.570312 4.359375 -3.597656 4.359375 -3.640625 C 4.359375 -3.691406 4.367188 -3.71875 4.390625 -3.71875 L 5.828125 -3.71875 C 5.835938 -3.695312 5.84375 -3.664062 5.84375 -3.625 C 5.84375 -3.59375 5.835938 -3.570312 5.828125 -3.5625 C 5.804688 -3.550781 5.71875 -3.539062 5.5625 -3.53125 C 5.3125 -3.5 5.132812 -3.40625 5.03125 -3.25 L 3.875 -1.4375 L 4.375 -0.59375 C 4.519531 -0.332031 4.695312 -0.203125 4.90625 -0.203125 C 5.019531 -0.203125 5.128906 -0.226562 5.234375 -0.28125 C 5.347656 -0.332031 5.421875 -0.363281 5.453125 -0.375 Z M 1.8125 -0.359375 C 2.070312 -0.359375 2.316406 -0.421875 2.546875 -0.546875 C 2.773438 -0.671875 3 -0.828125 3.21875 -1.015625 C 3.269531 -1.054688 3.289062 -1.085938 3.28125 -1.109375 C 3.28125 -1.140625 3.28125 -1.15625 3.28125 -1.15625 C 3.28125 -1.164062 3.28125 -1.171875 3.28125 -1.171875 C 2.925781 -1.773438 2.492188 -2.285156 1.984375 -2.703125 C 1.953125 -2.722656 1.914062 -2.75 1.875 -2.78125 C 1.84375 -2.820312 1.804688 -2.84375 1.765625 -2.84375 C 1.722656 -2.84375 1.648438 -2.8125 1.546875 -2.75 C 1.328125 -2.613281 1.144531 -2.425781 1 -2.1875 C 0.863281 -1.957031 0.796875 -1.742188 0.796875 -1.546875 C 0.796875 -1.203125 0.898438 -0.914062 1.109375 -0.6875 C 1.316406 -0.46875 1.550781 -0.359375 1.8125 -0.359375 Z M 2.71875 -4.15625 C 2.71875 -4.644531 2.507812 -4.890625 2.09375 -4.890625 C 1.832031 -4.890625 1.664062 -4.769531 1.59375 -4.53125 C 1.5625 -4.457031 1.546875 -4.347656 1.546875 -4.203125 C 1.546875 -4.066406 1.597656 -3.910156 1.703125 -3.734375 C 1.816406 -3.566406 1.960938 -3.425781 2.140625 -3.3125 C 2.304688 -3.34375 2.441406 -3.445312 2.546875 -3.625 C 2.660156 -3.8125 2.71875 -3.988281 2.71875 -4.15625 Z M 2.71875 -4.15625 "/></g></g></g><g fill="#435d44" fill-opacity="1"><g transform="translate(201.164564, 291.019765)"><g/></g></g><g fill="#435d44" fill-opacity="1"><g transform="translate(207.422855, 291.019765)"><g><path d="M 0.171875 -5.484375 C 0.171875 -5.503906 0.179688 -5.515625 0.203125 -5.515625 L 0.296875 -5.515625 L 1.546875 -5.546875 C 1.703125 -5.554688 1.867188 -5.5625 2.046875 -5.5625 L 2.53125 -5.5625 C 2.976562 -5.5625 3.316406 -5.539062 3.546875 -5.5 C 3.773438 -5.46875 4 -5.425781 4.21875 -5.375 C 4.4375 -5.332031 4.671875 -5.226562 4.921875 -5.0625 C 5.171875 -4.90625 5.390625 -4.710938 5.578125 -4.484375 C 5.960938 -3.992188 6.15625 -3.460938 6.15625 -2.890625 C 6.15625 -2.328125 6.003906 -1.820312 5.703125 -1.375 C 5.273438 -0.71875 4.65625 -0.289062 3.84375 -0.09375 C 3.59375 -0.03125 3.332031 0 3.0625 0 L 0.203125 0 C 0.179688 0 0.171875 -0.0078125 0.171875 -0.03125 L 0.171875 -0.140625 C 0.171875 -0.160156 0.179688 -0.171875 0.203125 -0.171875 L 0.296875 -0.171875 C 0.765625 -0.171875 1 -0.320312 1 -0.625 L 1 -4.90625 C 1 -5.050781 0.941406 -5.160156 0.828125 -5.234375 C 0.722656 -5.304688 0.597656 -5.34375 0.453125 -5.34375 L 0.203125 -5.34375 C 0.179688 -5.34375 0.171875 -5.351562 0.171875 -5.375 Z M 1.859375 -5.375 C 1.796875 -5.375 1.765625 -5.335938 1.765625 -5.265625 L 1.765625 -0.484375 C 1.765625 -0.296875 1.945312 -0.195312 2.3125 -0.1875 C 2.414062 -0.1875 2.523438 -0.1875 2.640625 -0.1875 C 3.472656 -0.1875 4.125 -0.414062 4.59375 -0.875 C 5.070312 -1.34375 5.3125 -1.960938 5.3125 -2.734375 C 5.3125 -3.515625 5.09375 -4.148438 4.65625 -4.640625 C 4.21875 -5.128906 3.640625 -5.375 2.921875 -5.375 Z M 1.859375 -5.375 "/></g></g></g><g fill="#435d44" fill-opacity="1"><g transform="translate(218.031223, 291.019765)"><g><path d="M 0.984375 -4.890625 C 0.984375 -5.203125 0.804688 -5.359375 0.453125 -5.359375 C 0.390625 -5.359375 0.359375 -5.367188 0.359375 -5.390625 L 0.359375 -5.484375 C 0.359375 -5.503906 0.367188 -5.515625 0.390625 -5.515625 L 2.34375 -5.515625 C 2.363281 -5.515625 2.375 -5.503906 2.375 -5.484375 L 2.375 -5.390625 C 2.375 -5.367188 2.316406 -5.359375 2.203125 -5.359375 C 2.085938 -5.359375 1.984375 -5.320312 1.890625 -5.25 C 1.796875 -5.175781 1.75 -5.023438 1.75 -4.796875 L 1.75 -0.625 C 1.75 -0.3125 1.929688 -0.15625 2.296875 -0.15625 C 2.347656 -0.15625 2.375 -0.144531 2.375 -0.125 L 2.375 -0.03125 C 2.375 -0.0078125 2.363281 0 2.34375 0 L 0.390625 0 C 0.367188 0 0.359375 -0.0078125 0.359375 -0.03125 L 0.359375 -0.125 C 0.359375 -0.144531 0.414062 -0.15625 0.53125 -0.15625 C 0.644531 -0.15625 0.75 -0.191406 0.84375 -0.265625 C 0.9375 -0.335938 0.984375 -0.488281 0.984375 -0.71875 Z M 0.984375 -4.890625 "/></g></g></g><g fill="#435d44" fill-opacity="1"><g transform="translate(224.871346, 291.019765)"><g><path d="M 2.078125 -0.03125 C 2.078125 -0.0078125 2.066406 0 2.046875 0 L 0.046875 0 C 0.0234375 0 0.015625 -0.0078125 0.015625 -0.03125 L 0.015625 -0.125 C 0.015625 -0.144531 0.0351562 -0.15625 0.078125 -0.15625 C 0.429688 -0.175781 0.671875 -0.367188 0.796875 -0.734375 L 2.390625 -5.34375 C 2.390625 -5.34375 2.390625 -5.347656 2.390625 -5.359375 L 2.34375 -5.484375 C 2.34375 -5.503906 2.347656 -5.515625 2.359375 -5.515625 L 3.140625 -5.515625 C 3.148438 -5.503906 3.160156 -5.5 3.171875 -5.5 C 3.179688 -5.5 3.1875 -5.492188 3.1875 -5.484375 L 4.84375 -0.84375 C 4.875 -0.769531 4.898438 -0.703125 4.921875 -0.640625 C 4.953125 -0.585938 4.976562 -0.539062 5 -0.5 C 5.0625 -0.382812 5.164062 -0.300781 5.3125 -0.25 C 5.4375 -0.1875 5.546875 -0.15625 5.640625 -0.15625 C 5.660156 -0.15625 5.671875 -0.144531 5.671875 -0.125 L 5.671875 -0.03125 C 5.671875 -0.0078125 5.660156 0 5.640625 0 L 3.25 0 C 3.226562 0 3.21875 -0.0078125 3.21875 -0.03125 L 3.21875 -0.125 C 3.21875 -0.144531 3.265625 -0.15625 3.359375 -0.15625 C 3.460938 -0.164062 3.546875 -0.175781 3.609375 -0.1875 C 3.960938 -0.21875 4.140625 -0.335938 4.140625 -0.546875 C 4.140625 -0.566406 4.140625 -0.585938 4.140625 -0.609375 L 3.546875 -2.265625 C 3.546875 -2.273438 3.539062 -2.285156 3.53125 -2.296875 C 3.5 -2.390625 3.445312 -2.4375 3.375 -2.4375 L 1.984375 -2.4375 C 1.898438 -2.4375 1.835938 -2.394531 1.796875 -2.3125 C 1.785156 -2.289062 1.78125 -2.28125 1.78125 -2.28125 L 1.203125 -0.5625 L 1.203125 -0.53125 C 1.203125 -0.457031 1.238281 -0.394531 1.3125 -0.34375 C 1.46875 -0.21875 1.679688 -0.15625 1.953125 -0.15625 L 2.046875 -0.15625 C 2.066406 -0.15625 2.078125 -0.144531 2.078125 -0.125 Z M 3.234375 -2.875 C 3.285156 -2.875 3.3125 -2.890625 3.3125 -2.921875 C 3.3125 -2.941406 3.304688 -2.96875 3.296875 -3 L 2.703125 -4.59375 C 2.679688 -4.664062 2.664062 -4.703125 2.65625 -4.703125 C 2.632812 -4.703125 2.613281 -4.664062 2.59375 -4.59375 L 2.046875 -3 C 2.035156 -2.96875 2.03125 -2.9375 2.03125 -2.90625 C 2.03125 -2.882812 2.046875 -2.875 2.078125 -2.875 Z M 3.234375 -2.875 "/></g></g></g><g fill="#435d44" fill-opacity="1"><g transform="translate(234.671391, 291.019765)"><g><path d="M 0.203125 0 C 0.179688 0 0.171875 -0.0234375 0.171875 -0.078125 L 0.171875 -0.125 C 0.171875 -0.144531 0.179688 -0.15625 0.203125 -0.15625 C 0.222656 -0.15625 0.25 -0.15625 0.28125 -0.15625 C 0.3125 -0.164062 0.34375 -0.171875 0.375 -0.171875 C 0.414062 -0.179688 0.453125 -0.1875 0.484375 -0.1875 C 0.515625 -0.195312 0.535156 -0.207031 0.546875 -0.21875 C 0.816406 -0.269531 0.953125 -0.421875 0.953125 -0.671875 L 0.953125 -4.796875 C 0.953125 -5.015625 0.863281 -5.171875 0.6875 -5.265625 C 0.570312 -5.328125 0.457031 -5.359375 0.34375 -5.359375 L 0.1875 -5.359375 C 0.164062 -5.359375 0.15625 -5.367188 0.15625 -5.390625 L 0.15625 -5.484375 C 0.15625 -5.503906 0.171875 -5.515625 0.203125 -5.515625 L 2.34375 -5.5625 L 2.75 -5.5625 C 3.207031 -5.53125 3.59375 -5.363281 3.90625 -5.0625 C 4.21875 -4.757812 4.375 -4.382812 4.375 -3.9375 C 4.375 -3.5 4.1875 -3.15625 3.8125 -2.90625 C 3.695312 -2.832031 3.570312 -2.765625 3.4375 -2.703125 L 4.625 -0.765625 C 4.832031 -0.429688 5.109375 -0.195312 5.453125 -0.0625 C 5.484375 -0.0507812 5.5 -0.03125 5.5 0 C 5.5 0.0625 5.457031 0.09375 5.375 0.09375 C 4.78125 0.09375 4.3125 -0.128906 3.96875 -0.578125 C 3.894531 -0.671875 3.820312 -0.78125 3.75 -0.90625 L 2.734375 -2.484375 L 1.796875 -2.53125 L 1.765625 -2.53125 C 1.734375 -2.53125 1.71875 -2.515625 1.71875 -2.484375 L 1.71875 -0.671875 C 1.71875 -0.535156 1.753906 -0.429688 1.828125 -0.359375 C 1.910156 -0.285156 2.050781 -0.238281 2.25 -0.21875 C 2.300781 -0.207031 2.363281 -0.191406 2.4375 -0.171875 C 2.519531 -0.160156 2.570312 -0.15625 2.59375 -0.15625 C 2.625 -0.15625 2.640625 -0.144531 2.640625 -0.125 L 2.640625 -0.03125 C 2.640625 -0.0078125 2.628906 0 2.609375 0 Z M 2.03125 -5.359375 C 2 -5.359375 1.960938 -5.359375 1.921875 -5.359375 C 1.890625 -5.359375 1.847656 -5.359375 1.796875 -5.359375 C 1.742188 -5.359375 1.71875 -5.335938 1.71875 -5.296875 L 1.71875 -2.8125 C 1.726562 -2.75 1.753906 -2.71875 1.796875 -2.71875 L 2.1875 -2.703125 C 2.925781 -2.703125 3.367188 -2.960938 3.515625 -3.484375 C 3.566406 -3.640625 3.59375 -3.828125 3.59375 -4.046875 C 3.59375 -4.453125 3.460938 -4.773438 3.203125 -5.015625 C 2.953125 -5.253906 2.625 -5.375 2.21875 -5.375 C 2.1875 -5.375 2.15625 -5.367188 2.125 -5.359375 C 2.09375 -5.359375 2.0625 -5.359375 2.03125 -5.359375 Z M 2.03125 -5.359375 "/></g></g></g><g fill="#435d44" fill-opacity="1"><g transform="translate(244.323051, 291.019765)"><g><path d="M 2.0625 0 C 1.96875 0 1.921875 -0.0234375 1.921875 -0.078125 L 1.921875 -0.125 C 1.921875 -0.164062 1.957031 -0.1875 2.03125 -0.1875 C 2.113281 -0.195312 2.164062 -0.207031 2.1875 -0.21875 C 2.382812 -0.238281 2.523438 -0.285156 2.609375 -0.359375 C 2.691406 -0.429688 2.734375 -0.546875 2.734375 -0.703125 L 2.734375 -2 C 2.734375 -2.019531 2.726562 -2.039062 2.71875 -2.0625 L 1.125 -4.609375 C 0.875 -5.003906 0.625 -5.234375 0.375 -5.296875 C 0.363281 -5.296875 0.335938 -5.296875 0.296875 -5.296875 C 0.265625 -5.304688 0.191406 -5.320312 0.078125 -5.34375 C 0.0351562 -5.351562 0.015625 -5.382812 0.015625 -5.4375 C 0.015625 -5.488281 0.0351562 -5.515625 0.078125 -5.515625 L 2.3125 -5.515625 C 2.351562 -5.515625 2.375 -5.488281 2.375 -5.4375 C 2.375 -5.382812 2.351562 -5.359375 2.3125 -5.359375 C 2.132812 -5.335938 2.019531 -5.316406 1.96875 -5.296875 C 1.832031 -5.253906 1.765625 -5.171875 1.765625 -5.046875 C 1.765625 -4.984375 1.78125 -4.925781 1.8125 -4.875 L 3.140625 -2.765625 C 3.160156 -2.722656 3.175781 -2.695312 3.1875 -2.6875 C 3.195312 -2.675781 3.210938 -2.671875 3.234375 -2.671875 C 3.253906 -2.671875 3.285156 -2.707031 3.328125 -2.78125 L 4.390625 -4.578125 C 4.421875 -4.640625 4.457031 -4.707031 4.5 -4.78125 C 4.539062 -4.851562 4.5625 -4.925781 4.5625 -5 C 4.5625 -5.1875 4.429688 -5.300781 4.171875 -5.34375 C 4.078125 -5.351562 4.023438 -5.363281 4.015625 -5.375 C 4.003906 -5.394531 4 -5.414062 4 -5.4375 C 4 -5.488281 4.019531 -5.515625 4.0625 -5.515625 L 5.890625 -5.515625 C 5.929688 -5.515625 5.953125 -5.492188 5.953125 -5.453125 C 5.953125 -5.421875 5.941406 -5.394531 5.921875 -5.375 C 5.910156 -5.363281 5.894531 -5.351562 5.875 -5.34375 C 5.863281 -5.34375 5.84375 -5.335938 5.8125 -5.328125 C 5.789062 -5.328125 5.742188 -5.316406 5.671875 -5.296875 C 5.484375 -5.253906 5.285156 -5.113281 5.078125 -4.875 C 5.046875 -4.84375 5.03125 -4.820312 5.03125 -4.8125 L 3.484375 -2.15625 L 3.484375 -0.703125 C 3.484375 -0.566406 3.523438 -0.457031 3.609375 -0.375 C 3.691406 -0.289062 3.828125 -0.234375 4.015625 -0.203125 C 4.203125 -0.179688 4.296875 -0.15625 4.296875 -0.125 L 4.296875 -0.078125 C 4.296875 -0.0234375 4.25 0 4.15625 0 Z M 2.0625 0 "/></g></g></g></svg>