<svg width="53" height="71" viewBox="0 0 53 71" fill="none" xmlns="http://www.w3.org/2000/svg">
<mask id="mask0_2_7001" style="mask-type:luminance" maskUnits="userSpaceOnUse" x="0" y="0" width="53" height="71">
<path d="M0 0H52.2231V71H0V0Z" fill="white"/>
</mask>
<g mask="url(#mask0_2_7001)">
<path d="M25.7234 0.0184248C27.169 0.00620033 28.6695 0.0612105 30.0998 0.265971C33.1926 0.706054 36.0837 1.80626 38.8098 3.30988C41.5389 4.81349 43.886 6.83665 45.9 9.20821C48.3174 12.0565 50.1694 15.3174 51.2024 18.9145C51.8808 21.283 52.2445 23.7768 52.269 26.2431C52.272 26.7229 52.2965 27.218 52.2567 27.6978C52.1834 28.581 51.9908 29.4306 51.7983 30.2924C51.2054 32.9604 50.2947 35.5123 49.2312 38.0245C48.1279 40.6344 46.8718 43.1557 45.4843 45.622C44.1488 47.9997 42.7124 50.304 41.2272 52.59C40.5426 53.6443 39.8702 54.7048 39.1582 55.7378C38.2077 57.113 37.2175 58.4547 36.2334 59.8055C35.3166 61.0585 34.415 62.3237 33.4676 63.5554C32.6914 64.57 31.8601 65.551 31.0686 66.5565C30.3596 67.458 29.6383 68.3535 28.9079 69.2367C28.5075 69.7226 28.0919 70.2972 27.6029 70.6975C27.3462 70.9084 27.0987 71.0368 26.7808 71.1254L26.2582 71.1926C25.812 71.2049 25.32 71.049 24.9899 70.7434C24.3604 70.1597 23.8042 69.4231 23.2541 68.763C21.9521 67.1952 20.7052 65.5877 19.4645 63.971C17.1082 60.9088 14.8008 57.8129 12.6401 54.6101C11.8578 53.4457 11.1243 52.2538 10.3694 51.0741C6.67455 45.3042 3.27614 39.143 1.3355 32.5387C0.809842 30.7509 0.311692 28.9141 0.256683 27.0407C0.0519217 20.0422 2.79327 13.1537 7.59751 8.08661C8.25457 7.39287 8.96054 6.76942 9.6879 6.15513C13.178 3.21208 17.2793 1.2042 21.7841 0.388217C23.0921 0.149838 24.394 0.0550984 25.7234 0.0184248ZM25.9159 13.6824C25.4178 13.7007 24.9196 13.7129 24.4246 13.7893C21.8299 14.1866 19.2016 15.5222 17.4138 17.4475C15.085 19.9566 13.9359 23.1197 14.0582 26.5303C14.1682 29.6109 15.5312 32.6457 17.8019 34.7361C20.201 36.9395 23.3244 38.2262 26.6066 38.0856C27.2454 38.0611 27.8688 38.0245 28.5014 37.9114C31.1664 37.4285 33.5593 36.0746 35.393 34.082C37.6454 31.631 38.6386 28.4588 38.495 25.1673C38.3575 22.0592 36.9577 18.9848 34.6473 16.8974C32.9909 15.3999 30.8822 14.2875 28.6817 13.8719C27.7771 13.7038 26.8328 13.6549 25.9159 13.6824Z" fill="#C3A6A0" fill-opacity="0.47"/>
</g>
</svg>
