<svg xmlns="http://www.w3.org/2000/svg" xmlns:xlink="http://www.w3.org/1999/xlink" width="500" zoomAndPan="magnify" viewBox="110 95 160 160" height="500" preserveAspectRatio="xMidYMid meet" version="1.0"><defs><g/><clipPath id="93d8059e26"><path d="M 85 192 L 145 192 L 145 237 L 85 237 Z M 85 192 " clip-rule="nonzero"/></clipPath><clipPath id="e1e5c88afe"><path d="M 58.722656 69.621094 L 194.6875 106.964844 L 148.796875 274.027344 L 12.835938 236.679688 Z M 58.722656 69.621094 " clip-rule="nonzero"/></clipPath><clipPath id="4564ae3756"><path d="M 58.722656 69.621094 L 194.6875 106.964844 L 148.796875 274.027344 L 12.835938 236.679688 Z M 58.722656 69.621094 " clip-rule="nonzero"/></clipPath><clipPath id="037fe645cb"><path d="M 58.722656 69.621094 L 194.6875 106.964844 L 148.796875 274.027344 L 12.835938 236.679688 Z M 58.722656 69.621094 " clip-rule="nonzero"/></clipPath><clipPath id="3383ea980b"><path d="M 115 90 L 136 90 L 136 129 L 115 129 Z M 115 90 " clip-rule="nonzero"/></clipPath><clipPath id="a055b2c40e"><path d="M 58.722656 69.621094 L 194.6875 106.964844 L 148.796875 274.027344 L 12.835938 236.679688 Z M 58.722656 69.621094 " clip-rule="nonzero"/></clipPath><clipPath id="2f564ebbf5"><path d="M 58.722656 69.621094 L 194.6875 106.964844 L 148.796875 274.027344 L 12.835938 236.679688 Z M 58.722656 69.621094 " clip-rule="nonzero"/></clipPath><clipPath id="0a18a64323"><path d="M 58.722656 69.621094 L 194.6875 106.964844 L 148.796875 274.027344 L 12.835938 236.679688 Z M 58.722656 69.621094 " clip-rule="nonzero"/></clipPath><clipPath id="c8b541fd04"><path d="M 20 193 L 52 193 L 52 241 L 20 241 Z M 20 193 " clip-rule="nonzero"/></clipPath><clipPath id="4d95c32b1d"><path d="M 58.722656 69.621094 L 194.6875 106.964844 L 148.796875 274.027344 L 12.835938 236.679688 Z M 58.722656 69.621094 " clip-rule="nonzero"/></clipPath><clipPath id="d02dc7580a"><path d="M 58.722656 69.621094 L 194.6875 106.964844 L 148.796875 274.027344 L 12.835938 236.679688 Z M 58.722656 69.621094 " clip-rule="nonzero"/></clipPath><clipPath id="b3713c5013"><path d="M 58.722656 69.621094 L 194.6875 106.964844 L 148.796875 274.027344 L 12.835938 236.679688 Z M 58.722656 69.621094 " clip-rule="nonzero"/></clipPath><clipPath id="41b123421b"><path d="M 36 122 L 189 122 L 189 243 L 36 243 Z M 36 122 " clip-rule="nonzero"/></clipPath><clipPath id="b2ee6dd28d"><path d="M 58.722656 69.621094 L 194.6875 106.964844 L 148.796875 274.027344 L 12.835938 236.679688 Z M 58.722656 69.621094 " clip-rule="nonzero"/></clipPath><clipPath id="c1e802a276"><path d="M 58.722656 69.621094 L 194.6875 106.964844 L 148.796875 274.027344 L 12.835938 236.679688 Z M 58.722656 69.621094 " clip-rule="nonzero"/></clipPath><clipPath id="c4525e4b39"><path d="M 58.722656 69.621094 L 194.6875 106.964844 L 148.796875 274.027344 L 12.835938 236.679688 Z M 58.722656 69.621094 " clip-rule="nonzero"/></clipPath></defs><g clip-path="url(#93d8059e26)"><g clip-path="url(#e1e5c88afe)"><g clip-path="url(#4564ae3756)"><g clip-path="url(#037fe645cb)"><path fill="#231f20" d="M 139.480469 230.484375 L 139.582031 230.363281 L 139.789062 230.113281 C 139.855469 230.027344 139.925781 229.945312 139.992188 229.859375 L 140.183594 229.605469 L 140.375 229.34375 C 140.4375 229.257812 140.503906 229.171875 140.558594 229.082031 L 140.910156 228.550781 C 140.9375 228.503906 140.96875 228.460938 140.996094 228.414062 L 141.078125 228.277344 L 141.238281 228.003906 C 141.34375 227.824219 141.453125 227.640625 141.546875 227.453125 L 141.839844 226.894531 C 141.890625 226.804688 141.933594 226.707031 141.976562 226.613281 L 142.105469 226.328125 C 142.289062 225.953125 142.4375 225.566406 142.59375 225.183594 L 142.652344 225.039062 L 142.703125 224.894531 L 142.808594 224.601562 C 142.875 224.410156 142.949219 224.214844 143.011719 224.019531 L 143.191406 223.433594 L 143.285156 223.140625 C 143.3125 223.046875 143.335938 222.945312 143.363281 222.847656 C 143.46875 222.457031 143.578125 222.066406 143.664062 221.671875 L 143.796875 221.082031 C 143.835938 220.882812 143.871094 220.6875 143.910156 220.492188 C 144.207031 218.914062 144.382812 217.339844 144.484375 215.769531 L 144.515625 215.183594 L 144.527344 215.039062 L 144.53125 214.890625 L 144.539062 214.597656 L 144.558594 214.011719 L 144.566406 213.722656 L 144.570312 213.429688 C 144.574219 213.039062 144.578125 212.652344 144.578125 212.261719 C 144.570312 211.875 144.5625 211.488281 144.554688 211.101562 C 144.507812 209.554688 144.410156 208.019531 144.269531 206.5 C 144.238281 206.117188 144.191406 205.738281 144.15625 205.359375 L 144.09375 204.792969 L 144.023438 204.222656 C 143.976562 203.847656 143.929688 203.46875 143.882812 203.09375 C 143.832031 202.71875 143.777344 202.339844 143.722656 201.96875 L 143.644531 201.40625 L 143.554688 200.84375 C 143.496094 200.472656 143.433594 200.101562 143.375 199.726562 C 143.3125 199.355469 143.246094 198.984375 143.179688 198.613281 L 143.082031 198.054688 L 143.03125 197.78125 L 142.976562 197.503906 C 142.664062 195.824219 142.316406 194.160156 141.941406 192.507812 C 140.992188 193.082031 140.03125 193.660156 139.066406 194.238281 C 139.160156 194.699219 139.25 195.164062 139.339844 195.628906 L 139.515625 196.542969 L 139.570312 196.847656 C 139.640625 197.253906 139.710938 197.660156 139.785156 198.066406 L 139.839844 198.371094 L 139.886719 198.675781 L 139.988281 199.289062 C 140.054688 199.699219 140.121094 200.105469 140.179688 200.515625 C 140.667969 203.785156 141.027344 207.09375 141.125 210.398438 C 141.175781 212.050781 141.160156 213.703125 141.050781 215.34375 C 140.945312 216.984375 140.742188 218.609375 140.414062 220.191406 C 140.394531 220.292969 140.371094 220.390625 140.347656 220.488281 L 140.277344 220.785156 L 140.210938 221.078125 L 140.175781 221.226562 L 140.136719 221.371094 C 140.03125 221.757812 139.929688 222.148438 139.804688 222.523438 L 139.710938 222.808594 C 139.683594 222.902344 139.652344 223 139.621094 223.09375 L 139.414062 223.648438 L 139.363281 223.789062 L 139.308594 223.925781 L 139.082031 224.472656 L 139.054688 224.539062 L 139.023438 224.609375 L 138.960938 224.738281 L 138.710938 225.269531 L 138.4375 225.785156 L 138.371094 225.914062 C 138.347656 225.957031 138.320312 226 138.296875 226.039062 L 138.148438 226.289062 L 138.003906 226.539062 C 137.949219 226.621094 137.894531 226.699219 137.84375 226.78125 L 137.683594 227.019531 L 137.605469 227.140625 C 137.578125 227.179688 137.546875 227.214844 137.519531 227.253906 L 137.179688 227.714844 L 136.8125 228.152344 C 136.757812 228.226562 136.691406 228.292969 136.625 228.363281 L 136.429688 228.570312 C 135.390625 229.664062 134.152344 230.554688 132.753906 231.175781 C 132.058594 231.488281 131.324219 231.742188 130.566406 231.9375 C 130.378906 231.984375 130.191406 232.039062 129.996094 232.074219 L 129.707031 232.136719 C 129.609375 232.15625 129.511719 232.179688 129.414062 232.195312 L 128.828125 232.292969 L 128.230469 232.367188 C 127.433594 232.457031 126.625 232.5 125.804688 232.5 L 125.191406 232.496094 C 124.984375 232.492188 124.777344 232.480469 124.574219 232.472656 C 124.367188 232.46875 124.160156 232.449219 123.953125 232.4375 C 123.746094 232.421875 123.539062 232.410156 123.332031 232.386719 C 122.503906 232.320312 121.671875 232.203125 120.839844 232.074219 C 120.003906 231.941406 119.171875 231.769531 118.339844 231.585938 C 116.898438 231.261719 115.464844 230.871094 114.042969 230.433594 C 112.621094 229.988281 111.214844 229.5 109.816406 228.972656 C 107.027344 227.914062 104.289062 226.714844 101.601562 225.425781 C 97.433594 223.421875 93.378906 221.210938 89.433594 218.875 C 88.09375 219.367188 86.765625 219.839844 85.445312 220.285156 C 85.78125 220.496094 86.117188 220.707031 86.457031 220.917969 C 87.894531 221.808594 89.355469 222.683594 90.828125 223.542969 C 92.304688 224.402344 93.796875 225.238281 95.308594 226.054688 C 96.824219 226.871094 98.355469 227.667969 99.910156 228.433594 C 101.464844 229.199219 103.039062 229.9375 104.640625 230.636719 C 106.242188 231.335938 107.871094 232.003906 109.523438 232.613281 L 110.148438 232.84375 L 110.773438 233.0625 L 111.085938 233.175781 L 111.402344 233.28125 L 112.03125 233.496094 L 112.667969 233.703125 L 112.984375 233.804688 L 113.300781 233.902344 L 113.941406 234.097656 L 114.585938 234.285156 L 114.910156 234.378906 L 115.230469 234.464844 L 115.882812 234.640625 L 116.535156 234.804688 C 116.644531 234.832031 116.753906 234.863281 116.863281 234.886719 L 117.191406 234.964844 C 118.066406 235.175781 118.957031 235.351562 119.851562 235.511719 C 121.644531 235.824219 123.476562 236.03125 125.347656 236.0625 C 125.582031 236.058594 125.816406 236.070312 126.050781 236.0625 L 126.753906 236.050781 C 127.226562 236.027344 127.699219 236.003906 128.171875 235.953125 C 129.121094 235.863281 130.070312 235.71875 131.015625 235.5 C 131.960938 235.273438 132.898438 234.976562 133.8125 234.59375 C 134.726562 234.210938 135.613281 233.738281 136.445312 233.179688 C 136.625 233.054688 136.804688 232.933594 136.984375 232.804688 L 137.496094 232.40625 C 137.542969 232.371094 137.585938 232.339844 137.625 232.304688 L 137.75 232.199219 L 138.242188 231.769531 L 138.476562 231.542969 L 138.707031 231.316406 C 138.785156 231.242188 138.863281 231.167969 138.9375 231.085938 L 139.375 230.609375 C 139.410156 230.566406 139.449219 230.527344 139.480469 230.484375 " fill-opacity="1" fill-rule="nonzero"/></g></g></g></g><g clip-path="url(#3383ea980b)"><g clip-path="url(#a055b2c40e)"><g clip-path="url(#2f564ebbf5)"><g clip-path="url(#0a18a64323)"><path fill="#231f20" d="M 119.1875 127.367188 C 118.445312 124.742188 117.839844 122.097656 117.445312 119.449219 C 117.246094 118.125 117.097656 116.796875 117.015625 115.472656 C 116.933594 114.152344 116.910156 112.832031 116.972656 111.523438 C 117.097656 108.910156 117.542969 106.332031 118.429688 103.929688 C 118.878906 102.730469 119.4375 101.582031 120.109375 100.503906 C 120.777344 99.425781 121.5625 98.421875 122.441406 97.511719 C 123.316406 96.601562 124.289062 95.78125 125.328125 95.0625 C 126.367188 94.339844 127.472656 93.714844 128.617188 93.175781 C 129.757812 92.636719 130.941406 92.179688 132.140625 91.792969 C 132.441406 91.699219 132.742188 91.605469 133.042969 91.511719 C 133.347656 91.429688 133.652344 91.347656 133.957031 91.265625 C 134.257812 91.175781 134.566406 91.109375 134.871094 91.039062 C 135.175781 90.96875 135.480469 90.886719 135.789062 90.832031 C 134.425781 91.046875 133.0625 91.328125 131.714844 91.699219 C 130.363281 92.070312 129.027344 92.542969 127.734375 93.125 C 127.410156 93.273438 127.09375 93.429688 126.769531 93.585938 C 126.457031 93.75 126.140625 93.921875 125.824219 94.089844 C 125.671875 94.179688 125.515625 94.273438 125.363281 94.363281 L 125.132812 94.503906 C 125.054688 94.546875 124.976562 94.59375 124.902344 94.644531 C 124.753906 94.742188 124.601562 94.839844 124.453125 94.941406 L 124.226562 95.089844 C 124.148438 95.136719 124.082031 95.195312 124.007812 95.246094 C 122.828125 96.082031 121.734375 97.054688 120.753906 98.148438 C 119.777344 99.242188 118.933594 100.46875 118.222656 101.78125 C 118.179688 101.859375 118.136719 101.945312 118.09375 102.027344 L 117.78125 102.652344 L 117.722656 102.78125 C 117.570312 103.121094 117.410156 103.457031 117.277344 103.808594 C 117.207031 103.980469 117.136719 104.15625 117.070312 104.332031 C 117.007812 104.507812 116.945312 104.683594 116.878906 104.859375 L 116.785156 105.128906 C 116.757812 105.21875 116.730469 105.304688 116.703125 105.394531 C 116.644531 105.578125 116.589844 105.753906 116.535156 105.9375 C 116.109375 107.382812 115.824219 108.871094 115.640625 110.378906 C 115.613281 110.570312 115.597656 110.757812 115.578125 110.949219 C 115.5625 111.136719 115.542969 111.328125 115.523438 111.515625 C 115.511719 111.707031 115.496094 111.894531 115.484375 112.085938 C 115.46875 112.277344 115.457031 112.464844 115.449219 112.65625 C 115.433594 113.039062 115.414062 113.417969 115.410156 113.800781 C 115.40625 113.992188 115.40625 114.183594 115.402344 114.375 C 115.402344 114.566406 115.40625 114.757812 115.40625 114.949219 C 115.433594 118.015625 115.8125 121.089844 116.394531 124.144531 C 116.695312 125.726562 117.058594 127.300781 117.46875 128.867188 C 118.066406 128.441406 118.660156 128.019531 119.257812 127.605469 C 119.234375 127.523438 119.210938 127.445312 119.1875 127.367188 " fill-opacity="1" fill-rule="nonzero"/></g></g></g></g><g clip-path="url(#c8b541fd04)"><g clip-path="url(#4d95c32b1d)"><g clip-path="url(#d02dc7580a)"><g clip-path="url(#b3713c5013)"><path fill="#231f20" d="M 51.714844 194.152344 C 51.355469 194.078125 50.996094 194.015625 50.636719 193.949219 C 49.199219 193.6875 47.757812 193.472656 46.308594 193.3125 C 44.859375 193.152344 43.402344 193.046875 41.945312 193.015625 C 41.578125 193.003906 41.214844 193.007812 40.847656 193.007812 L 40.574219 193.011719 L 40.300781 193.019531 L 39.753906 193.03125 C 39.570312 193.035156 39.386719 193.050781 39.207031 193.058594 L 38.65625 193.089844 L 38.109375 193.132812 C 37.925781 193.148438 37.746094 193.160156 37.5625 193.183594 L 37.015625 193.242188 C 36.835938 193.261719 36.652344 193.292969 36.472656 193.316406 L 35.925781 193.394531 L 35.382812 193.488281 C 34.660156 193.625 33.941406 193.78125 33.230469 193.984375 L 32.964844 194.058594 C 32.875 194.082031 32.785156 194.109375 32.699219 194.136719 C 32.523438 194.195312 32.34375 194.246094 32.171875 194.304688 L 31.644531 194.492188 L 31.515625 194.535156 L 31.386719 194.585938 L 31.128906 194.691406 C 30.4375 194.964844 29.761719 195.273438 29.113281 195.636719 C 28.460938 195.996094 27.832031 196.398438 27.234375 196.839844 C 26.636719 197.28125 26.074219 197.773438 25.550781 198.296875 C 24.5 199.347656 23.613281 200.542969 22.917969 201.820312 C 22.21875 203.097656 21.6875 204.445312 21.308594 205.816406 C 20.929688 207.183594 20.683594 208.570312 20.542969 209.949219 C 20.261719 212.71875 20.367188 215.457031 20.667969 218.132812 C 20.976562 220.808594 21.488281 223.421875 22.121094 225.976562 C 22.757812 228.53125 23.519531 231.027344 24.371094 233.460938 C 25.222656 235.898438 26.160156 238.277344 27.195312 240.589844 C 26.191406 237.988281 25.308594 235.316406 24.523438 232.585938 C 23.746094 229.855469 23.074219 227.0625 22.566406 224.214844 C 22.066406 221.371094 21.71875 218.460938 21.671875 215.53125 C 21.648438 214.066406 21.695312 212.59375 21.855469 211.132812 C 22.011719 209.675781 22.273438 208.222656 22.679688 206.816406 C 23.085938 205.40625 23.640625 204.042969 24.378906 202.789062 C 25.113281 201.535156 26.03125 200.390625 27.117188 199.429688 C 28.199219 198.464844 29.449219 197.683594 30.789062 197.089844 C 31.460938 196.792969 32.15625 196.539062 32.867188 196.324219 C 33.578125 196.117188 34.304688 195.945312 35.042969 195.808594 L 35.597656 195.710938 C 35.78125 195.683594 35.96875 195.660156 36.15625 195.632812 C 36.25 195.621094 36.34375 195.605469 36.4375 195.597656 L 37 195.535156 C 37.09375 195.523438 37.1875 195.511719 37.28125 195.507812 L 37.851562 195.460938 C 37.945312 195.453125 38.039062 195.449219 38.132812 195.441406 L 38.417969 195.429688 C 38.800781 195.402344 39.183594 195.398438 39.5625 195.386719 C 41.09375 195.367188 42.636719 195.449219 44.179688 195.605469 C 45.726562 195.757812 47.277344 195.992188 48.824219 196.28125 C 49.507812 196.410156 50.191406 196.546875 50.871094 196.695312 C 51.167969 195.859375 51.476562 195.015625 51.796875 194.167969 C 51.769531 194.160156 51.742188 194.15625 51.714844 194.152344 " fill-opacity="1" fill-rule="nonzero"/></g></g></g></g><g clip-path="url(#41b123421b)"><g clip-path="url(#b2ee6dd28d)"><g clip-path="url(#c1e802a276)"><g clip-path="url(#c4525e4b39)"><path fill="#231f20" d="M 48.835938 237.058594 C 48.554688 237.640625 47.855469 237.882812 47.277344 237.601562 C 46.695312 237.324219 46.449219 236.625 46.730469 236.046875 C 47.007812 235.464844 47.707031 235.222656 48.289062 235.5 C 48.871094 235.78125 49.117188 236.480469 48.835938 237.058594 Z M 188.03125 125.847656 C 187.941406 125.507812 187.816406 125.167969 187.679688 124.835938 C 187.613281 124.667969 187.535156 124.503906 187.449219 124.339844 C 187.375 124.171875 187.289062 124.007812 187.195312 123.847656 C 187 123.523438 186.8125 123.195312 186.570312 122.878906 C 186.433594 122.71875 186.347656 122.554688 186.222656 122.394531 C 186.097656 122.238281 184.648438 122.164062 184.648438 122.164062 C 184.648438 122.164062 184.640625 122.164062 184.625 122.164062 C 171.199219 122.78125 158.167969 125.417969 145.890625 129.824219 C 142.601562 131.894531 139.285156 134.21875 136.027344 136.828125 C 136.027344 136.828125 138.25 134.527344 142.382812 131.140625 C 128.691406 136.496094 116.007812 144.085938 104.855469 153.570312 C 102.710938 156.238281 100.617188 159.097656 98.632812 162.144531 C 98.632812 162.144531 99.777344 159.765625 102.136719 155.941406 C 89.417969 167.367188 78.832031 181.332031 71.21875 197.285156 C 70.332031 199.148438 69.449219 200.984375 68.582031 202.785156 C 68.582031 202.785156 49.558594 227.253906 49.382812 227.480469 L 36.894531 242.089844 C 36.617188 242.414062 36.992188 242.886719 37.371094 242.691406 C 41.699219 240.453125 49.265625 238.707031 51.386719 238.246094 C 51.636719 238.191406 51.734375 237.890625 51.570312 237.691406 C 51.199219 237.238281 50.882812 236.757812 50.621094 236.253906 L 50.089844 235.582031 C 49.375 234.667969 49.40625 233.375 50.171875 232.5 L 50.902344 231.660156 C 51.328125 231.167969 51.757812 230.679688 52.183594 230.191406 C 52.300781 230.050781 58.121094 222.726562 62.796875 216.847656 L 81.265625 194.871094 C 81.941406 194.105469 82.652344 193.359375 83.351562 192.605469 L 84.40625 191.476562 C 84.582031 191.289062 84.753906 191.101562 84.933594 190.914062 L 85.472656 190.359375 L 87.628906 188.125 L 89.835938 185.917969 L 90.386719 185.363281 L 90.664062 185.089844 L 90.945312 184.816406 L 92.074219 183.726562 C 92.828125 182.996094 93.574219 182.265625 94.347656 181.550781 L 95.503906 180.472656 L 96.078125 179.929688 C 96.273438 179.75 96.460938 179.570312 96.660156 179.394531 L 99.019531 177.261719 C 102.195312 174.433594 105.472656 171.65625 108.867188 168.941406 C 115.652344 163.507812 122.910156 158.328125 130.71875 153.457031 C 134.625 151.023438 138.671875 148.667969 142.863281 146.402344 C 143.90625 145.832031 144.976562 145.28125 146.039062 144.722656 L 146.4375 144.511719 L 146.839844 144.308594 L 147.652344 143.898438 L 148.460938 143.484375 L 149.273438 143.078125 L 150.917969 142.269531 L 151.328125 142.070312 L 151.742188 141.871094 L 152.574219 141.472656 L 153.40625 141.078125 L 153.824219 140.878906 L 154.246094 140.683594 L 155.9375 139.90625 L 154.222656 140.757812 L 153.796875 140.972656 L 153.375 141.1875 L 152.53125 141.621094 L 151.6875 142.058594 C 151.40625 142.203125 151.132812 142.351562 150.855469 142.496094 L 149.191406 143.378906 L 147.554688 144.273438 L 146.738281 144.722656 L 145.929688 145.179688 L 144.320312 146.089844 L 142.734375 147.015625 L 141.941406 147.480469 C 141.675781 147.632812 141.421875 147.792969 141.160156 147.949219 L 139.597656 148.890625 C 139.335938 149.046875 139.082031 149.203125 138.824219 149.363281 L 138.058594 149.84375 L 137.292969 150.316406 C 137.039062 150.480469 136.777344 150.636719 136.527344 150.796875 C 134.511719 152.085938 132.515625 153.386719 130.574219 154.71875 C 122.789062 160.027344 115.613281 165.667969 108.949219 171.558594 C 108.121094 172.296875 107.277344 173.027344 106.472656 173.78125 L 105.253906 174.898438 L 104.640625 175.460938 C 104.4375 175.644531 104.242188 175.835938 104.042969 176.023438 L 101.660156 178.289062 L 99.328125 180.582031 C 96.25 183.648438 93.285156 186.773438 90.425781 189.945312 L 88.308594 192.335938 C 88.128906 192.535156 87.957031 192.738281 87.785156 192.9375 L 87.269531 193.542969 L 86.234375 194.75 L 85.71875 195.351562 L 85.460938 195.65625 L 85.207031 195.960938 L 83.191406 198.398438 L 82.691406 199.007812 L 82.199219 199.621094 L 80.242188 202.085938 C 80.074219 202.289062 79.917969 202.496094 79.757812 202.703125 L 79.28125 203.324219 L 78.328125 204.570312 L 77.375 205.8125 L 76.449219 207.066406 L 75.519531 208.320312 L 75.058594 208.945312 L 74.824219 209.257812 L 74.597656 209.574219 C 74.890625 209.59375 75.1875 209.605469 75.480469 209.613281 C 75.777344 209.625 76.078125 209.628906 76.378906 209.632812 C 76.980469 209.636719 77.585938 209.625 78.199219 209.597656 C 79.425781 209.546875 80.671875 209.4375 81.9375 209.265625 C 84.460938 208.921875 87.109375 208.375 89.789062 207.601562 C 95.1875 206.078125 100.832031 203.738281 106.660156 200.78125 C 106.328125 200.796875 105.996094 200.8125 105.664062 200.828125 C 105.335938 200.84375 105.003906 200.859375 104.671875 200.871094 C 104.007812 200.898438 103.339844 200.917969 102.667969 200.929688 C 101.324219 200.960938 99.964844 200.964844 98.597656 200.941406 C 97.914062 200.925781 97.230469 200.910156 96.539062 200.882812 C 95.855469 200.859375 95.167969 200.828125 94.480469 200.785156 C 93.105469 200.707031 91.71875 200.597656 90.328125 200.453125 C 90.328125 200.453125 91.046875 200.398438 92.308594 200.265625 C 92.941406 200.199219 93.707031 200.113281 94.585938 200.003906 C 95.472656 199.894531 96.472656 199.769531 97.5625 199.613281 C 98.65625 199.457031 99.835938 199.277344 101.085938 199.070312 C 101.707031 198.960938 102.359375 198.855469 103.023438 198.738281 C 103.6875 198.621094 104.363281 198.496094 105.050781 198.363281 C 105.742188 198.230469 106.441406 198.089844 107.148438 197.941406 C 107.503906 197.867188 107.859375 197.789062 108.222656 197.714844 C 108.585938 197.636719 108.949219 197.558594 109.3125 197.476562 C 110.777344 197.152344 112.265625 196.789062 113.753906 196.390625 C 114.886719 196.09375 115.871094 195.695312 116.695312 195.195312 C 116.976562 195.027344 117.257812 194.859375 117.53125 194.699219 C 117.808594 194.535156 118.078125 194.375 118.355469 194.21875 C 118.902344 193.914062 119.441406 193.617188 119.972656 193.324219 C 120.503906 193.035156 121.023438 192.753906 121.535156 192.476562 C 121.667969 192.40625 121.792969 192.335938 121.921875 192.269531 C 122.050781 192.199219 122.179688 192.132812 122.308594 192.0625 C 122.566406 191.929688 122.824219 191.792969 123.082031 191.660156 C 123.59375 191.386719 124.097656 191.117188 124.601562 190.839844 C 124.855469 190.703125 125.105469 190.566406 125.359375 190.425781 C 125.484375 190.355469 125.609375 190.285156 125.734375 190.214844 C 125.863281 190.144531 125.988281 190.074219 126.117188 190.007812 C 127.136719 189.441406 128.152344 188.84375 129.183594 188.1875 C 130.234375 187.535156 131.296875 186.828125 132.398438 186.027344 C 132.957031 185.632812 133.527344 185.214844 134.105469 184.769531 C 134.691406 184.324219 135.273438 183.851562 135.894531 183.359375 C 136.511719 182.867188 137.144531 182.339844 137.789062 181.78125 C 138.117188 181.507812 138.449219 181.222656 138.789062 180.929688 C 139.128906 180.636719 139.472656 180.335938 139.824219 180.027344 C 140.515625 179.402344 141.253906 178.757812 142.007812 178.066406 C 142.195312 177.894531 142.386719 177.71875 142.578125 177.539062 C 142.675781 177.449219 142.769531 177.359375 142.867188 177.273438 C 142.964844 177.183594 143.066406 177.089844 143.164062 177.003906 C 143.5625 176.640625 143.964844 176.269531 144.375 175.886719 C 144.542969 175.730469 144.71875 175.574219 144.894531 175.421875 C 145.070312 175.269531 145.25 175.117188 145.433594 174.972656 C 145.804688 174.675781 146.183594 174.386719 146.5625 174.097656 C 146.945312 173.8125 147.324219 173.527344 147.703125 173.242188 C 148.082031 172.957031 148.460938 172.675781 148.828125 172.386719 C 147.785156 172.542969 146.75 172.695312 145.734375 172.851562 C 144.714844 173.003906 143.703125 173.148438 142.703125 173.285156 C 142.199219 173.355469 141.703125 173.425781 141.214844 173.496094 C 140.722656 173.566406 140.234375 173.632812 139.75 173.699219 C 138.78125 173.832031 137.824219 173.957031 136.886719 174.078125 C 135.027344 174.328125 133.230469 174.550781 131.539062 174.753906 C 129.859375 174.96875 128.273438 175.152344 126.8125 175.316406 C 126.078125 175.398438 125.390625 175.480469 124.730469 175.554688 C 124.070312 175.628906 123.449219 175.699219 122.863281 175.761719 C 122.273438 175.824219 121.726562 175.878906 121.222656 175.933594 C 120.714844 175.984375 120.25 176.03125 119.835938 176.074219 C 118.171875 176.246094 117.230469 176.324219 117.230469 176.324219 C 124.332031 175.242188 130.53125 174.070312 135.90625 172.886719 C 141.28125 171.703125 145.855469 170.515625 149.664062 169.390625 C 150.042969 169.277344 150.410156 169.160156 150.769531 169.039062 C 151.128906 168.914062 151.472656 168.78125 151.820312 168.652344 C 152.511719 168.386719 153.164062 168.097656 153.777344 167.78125 C 154.085938 167.628906 154.382812 167.464844 154.671875 167.296875 C 154.964844 167.132812 155.25 166.960938 155.523438 166.785156 C 156.070312 166.429688 156.574219 166.050781 157.042969 165.652344 C 160.542969 162.722656 163.820312 159.859375 166.859375 157.09375 C 167.242188 156.746094 167.621094 156.402344 167.992188 156.0625 C 168.175781 155.890625 168.363281 155.71875 168.546875 155.546875 C 168.730469 155.375 168.914062 155.207031 169.097656 155.035156 C 169.464844 154.699219 169.824219 154.359375 170.175781 154.019531 C 170.539062 153.6875 170.890625 153.351562 171.238281 153.019531 C 171.410156 152.851562 171.582031 152.683594 171.753906 152.515625 C 171.929688 152.351562 172.101562 152.1875 172.273438 152.023438 C 172.613281 151.695312 172.949219 151.363281 173.277344 151.035156 C 173.609375 150.710938 173.941406 150.386719 174.261719 150.0625 C 174.421875 149.898438 174.582031 149.738281 174.742188 149.574219 C 174.902344 149.414062 175.058594 149.253906 175.21875 149.097656 C 174.253906 149.074219 173.316406 149.050781 172.421875 149.027344 C 171.523438 149.003906 170.652344 148.976562 169.828125 148.949219 C 169.011719 148.925781 168.234375 148.898438 167.507812 148.875 C 166.777344 148.84375 166.101562 148.820312 165.488281 148.796875 C 164.261719 148.75 163.273438 148.707031 162.589844 148.675781 C 162.246094 148.660156 161.980469 148.644531 161.804688 148.636719 C 161.625 148.628906 161.53125 148.621094 161.53125 148.621094 C 166.464844 147.351562 170.621094 145.929688 173.960938 144.636719 C 174.375 144.472656 174.785156 144.316406 175.175781 144.15625 C 175.570312 144 175.945312 143.84375 176.308594 143.691406 C 176.679688 143.542969 177.03125 143.394531 177.367188 143.25 C 177.703125 143.101562 178.027344 142.960938 178.339844 142.824219 C 178.964844 142.550781 179.527344 142.289062 180.039062 142.050781 C 180.550781 141.8125 181 141.59375 181.390625 141.398438 C 181.792969 141.199219 182.152344 140.976562 182.464844 140.722656 C 182.625 140.597656 182.765625 140.464844 182.902344 140.324219 C 183.039062 140.1875 183.160156 140.042969 183.273438 139.894531 C 184.585938 138.125 185.679688 136.425781 186.507812 134.796875 C 187.335938 133.167969 187.910156 131.613281 188.179688 130.121094 C 188.449219 128.632812 188.410156 127.210938 188.03125 125.847656 " fill-opacity="1" fill-rule="nonzero"/></g></g></g></g><g fill="#231f20" fill-opacity="1"><g transform="translate(166.49606, 200.68181)"><g><path d="M 14.109375 -8.421875 L 13.984375 -7.859375 C 13.984375 -7.753906 14.03125 -7.65625 14.125 -7.5625 C 14.226562 -7.476562 14.347656 -7.4375 14.484375 -7.4375 C 14.628906 -7.4375 14.742188 -7.507812 14.828125 -7.65625 C 17.460938 -11.144531 19.644531 -14.21875 21.375 -16.875 C 23.101562 -19.539062 24.367188 -21.5 25.171875 -22.75 C 25.972656 -24 26.613281 -24.992188 27.09375 -25.734375 C 28.363281 -27.679688 29.625 -29.421875 30.875 -30.953125 C 26.113281 -29.753906 22.378906 -29.15625 19.671875 -29.15625 C 16.972656 -29.15625 15.03125 -29.328125 13.84375 -29.671875 C 12.664062 -30.015625 11.890625 -30.398438 11.515625 -30.828125 C 11.148438 -31.265625 10.96875 -31.707031 10.96875 -32.15625 C 10.96875 -32.613281 10.984375 -33.050781 11.015625 -33.46875 C 11.085938 -34.351562 11.617188 -35.078125 12.609375 -35.640625 C 13.609375 -36.203125 14.4375 -36.484375 15.09375 -36.484375 C 15.75 -36.484375 16.078125 -36.382812 16.078125 -36.1875 C 16.078125 -36 15.929688 -35.738281 15.640625 -35.40625 C 15.347656 -35.082031 15.203125 -34.863281 15.203125 -34.75 C 15.203125 -34.175781 17.238281 -33.890625 21.3125 -33.890625 C 25.394531 -33.890625 30.082031 -34.429688 35.375 -35.515625 C 38.414062 -37.984375 41.039062 -39.21875 43.25 -39.21875 C 44.707031 -39.21875 45.675781 -38.800781 46.15625 -37.96875 C 46.476562 -37.476562 46.640625 -36.984375 46.640625 -36.484375 C 46.640625 -35.992188 46.347656 -35.5 45.765625 -35 C 45.191406 -34.507812 44.421875 -34.085938 43.453125 -33.734375 C 41.691406 -33.097656 39.609375 -32.597656 37.203125 -32.234375 C 36.203125 -30.941406 34.773438 -28.9375 32.921875 -26.21875 C 31.078125 -23.5 29.820312 -21.660156 29.15625 -20.703125 C 28.488281 -19.753906 27.40625 -18.0625 25.90625 -15.625 C 24.414062 -13.1875 23.125 -11.078125 22.03125 -9.296875 C 20.9375 -7.523438 19.769531 -5.773438 18.53125 -4.046875 C 16.007812 -0.484375 13.757812 1.296875 11.78125 1.296875 C 10.957031 1.296875 10.242188 1.070312 9.640625 0.625 C 9.035156 0.1875 8.734375 -0.523438 8.734375 -1.515625 C 8.734375 -2.515625 9.285156 -3.757812 10.390625 -5.25 C 11.492188 -6.75 12.300781 -7.707031 12.8125 -8.125 C 13.320312 -8.550781 13.664062 -8.765625 13.84375 -8.765625 C 14.019531 -8.765625 14.109375 -8.648438 14.109375 -8.421875 Z M 14.109375 -8.421875 "/></g></g></g><g fill="#231f20" fill-opacity="1"><g transform="translate(197.243658, 200.68181)"><g><path d="M 18.875 -29.078125 C 18.875 -28.066406 18.40625 -27.050781 17.46875 -26.03125 C 16.539062 -25.019531 15.566406 -24.515625 14.546875 -24.515625 C 13.535156 -24.515625 13.03125 -25.046875 13.03125 -26.109375 C 13.03125 -27.171875 13.472656 -28.179688 14.359375 -29.140625 C 15.253906 -30.109375 16.238281 -30.59375 17.3125 -30.59375 C 17.789062 -30.59375 18.171875 -30.457031 18.453125 -30.1875 C 18.734375 -29.925781 18.875 -29.554688 18.875 -29.078125 Z M 14.59375 -5.953125 C 14.59375 -5.421875 14.539062 -5.039062 14.4375 -4.8125 C 13.570312 -3.050781 12.191406 -1.628906 10.296875 -0.546875 C 8.410156 0.535156 6.769531 1.078125 5.375 1.078125 C 3.976562 1.078125 2.773438 0.613281 1.765625 -0.3125 C 0.765625 -1.25 0.265625 -2.203125 0.265625 -3.171875 C 0.265625 -4.148438 0.75 -5.566406 1.71875 -7.421875 C 2.6875 -9.273438 3.65625 -10.984375 4.625 -12.546875 C 5.601562 -14.117188 6.09375 -14.972656 6.09375 -15.109375 C 6.09375 -15.242188 5.910156 -15.503906 5.546875 -15.890625 C 5.179688 -16.273438 5 -16.5625 5 -16.75 C 5 -16.9375 5.363281 -17.421875 6.09375 -18.203125 C 6.832031 -18.992188 7.726562 -19.769531 8.78125 -20.53125 C 9.832031 -21.300781 10.632812 -21.6875 11.1875 -21.6875 C 11.738281 -21.6875 12.234375 -21.4375 12.671875 -20.9375 C 13.117188 -20.445312 13.34375 -20 13.34375 -19.59375 C 13.34375 -19.1875 11.242188 -15.363281 7.046875 -8.125 C 6.992188 -8.019531 6.847656 -7.785156 6.609375 -7.421875 C 6.367188 -7.066406 6.179688 -6.769531 6.046875 -6.53125 C 5.921875 -6.289062 5.769531 -6.003906 5.59375 -5.671875 C 5.238281 -4.960938 5.0625 -4.367188 5.0625 -3.890625 C 5.0625 -3.296875 5.46875 -3 6.28125 -3 C 7.09375 -3 7.929688 -3.273438 8.796875 -3.828125 C 9.671875 -4.378906 10.425781 -4.992188 11.0625 -5.671875 C 12.726562 -7.453125 13.675781 -8.34375 13.90625 -8.34375 C 14.363281 -8.34375 14.59375 -7.546875 14.59375 -5.953125 Z M 14.59375 -5.953125 "/></g></g></g><g fill="#231f20" fill-opacity="1"><g transform="translate(208.23441, 200.68181)"><g><path d="M 1.640625 0.15625 L 0.34375 0.109375 L -0.125 0.109375 C -0.300781 0.0546875 -0.488281 -0.046875 -0.6875 -0.203125 C -0.894531 -0.367188 -1.050781 -0.484375 -1.15625 -0.546875 C -1.269531 -0.617188 -1.328125 -0.75 -1.328125 -0.9375 C -1.328125 -1.125 -1.253906 -1.445312 -1.109375 -1.90625 C 2.328125 -9.476562 5.65625 -15.535156 8.875 -20.078125 C 9.226562 -20.566406 9.796875 -20.9375 10.578125 -21.1875 C 11.367188 -21.445312 12.132812 -21.578125 12.875 -21.578125 C 13.3125 -21.578125 13.53125 -21.234375 13.53125 -20.546875 C 13.53125 -20.359375 13.457031 -20.097656 13.3125 -19.765625 C 13.175781 -19.441406 12.820312 -18.90625 12.25 -18.15625 C 11.6875 -17.414062 11.015625 -16.566406 10.234375 -15.609375 C 9.460938 -14.660156 9.023438 -14.117188 8.921875 -13.984375 C 11.335938 -16.492188 13.519531 -18.359375 15.46875 -19.578125 C 17.425781 -20.804688 18.84375 -21.421875 19.71875 -21.421875 C 20.59375 -21.421875 21.265625 -21.171875 21.734375 -20.671875 C 22.203125 -20.171875 22.4375 -19.628906 22.4375 -19.046875 C 22.4375 -18.472656 22.394531 -17.992188 22.3125 -17.609375 C 22.226562 -17.234375 22.082031 -16.835938 21.875 -16.421875 C 21.664062 -16.015625 21.484375 -15.664062 21.328125 -15.375 C 21.179688 -15.082031 20.929688 -14.703125 20.578125 -14.234375 C 20.222656 -13.765625 19.976562 -13.441406 19.84375 -13.265625 C 19.71875 -13.085938 19.445312 -12.75 19.03125 -12.25 C 18.613281 -11.757812 18.390625 -11.488281 18.359375 -11.4375 C 18.847656 -11.9375 19.53125 -12.671875 20.40625 -13.640625 C 21.289062 -14.609375 22.035156 -15.414062 22.640625 -16.0625 C 23.253906 -16.71875 24.019531 -17.457031 24.9375 -18.28125 C 25.863281 -19.101562 26.722656 -19.769531 27.515625 -20.28125 C 29.421875 -21.476562 31.351562 -22.078125 33.3125 -22.078125 C 33.976562 -22.078125 34.539062 -21.863281 35 -21.4375 C 35.46875 -21.019531 35.703125 -20.515625 35.703125 -19.921875 C 35.703125 -19.335938 34.984375 -17.925781 33.546875 -15.6875 C 32.117188 -13.457031 30.691406 -11.21875 29.265625 -8.96875 C 27.847656 -6.71875 27.140625 -5.300781 27.140625 -4.71875 C 27.140625 -3.90625 27.289062 -3.421875 27.59375 -3.265625 C 27.894531 -3.117188 28.253906 -3.0625 28.671875 -3.09375 C 29.097656 -3.132812 29.695312 -3.410156 30.46875 -3.921875 C 31.238281 -4.429688 31.921875 -4.960938 32.515625 -5.515625 C 33.484375 -6.390625 34.382812 -7.242188 35.21875 -8.078125 C 35.394531 -8.234375 35.585938 -8.3125 35.796875 -8.3125 C 36.140625 -8.3125 36.34375 -8.054688 36.40625 -7.546875 C 36.476562 -7.035156 36.515625 -6.503906 36.515625 -5.953125 C 36.515625 -5.410156 36.460938 -5.03125 36.359375 -4.8125 C 35.847656 -3.832031 34.71875 -2.625 32.96875 -1.1875 C 31.21875 0.238281 29.539062 0.953125 27.9375 0.953125 C 27.738281 0.953125 27.597656 0.941406 27.515625 0.921875 C 25.691406 0.742188 24.429688 0.25 23.734375 -0.5625 C 23.035156 -1.382812 22.6875 -2.359375 22.6875 -3.484375 C 22.6875 -4.617188 23.070312 -5.988281 23.84375 -7.59375 C 24.613281 -9.207031 25.457031 -10.664062 26.375 -11.96875 C 27.289062 -13.269531 28.132812 -14.445312 28.90625 -15.5 C 29.675781 -16.550781 30.0625 -17.117188 30.0625 -17.203125 C 30.0625 -17.296875 29.988281 -17.34375 29.84375 -17.34375 C 29.300781 -17.34375 28.082031 -16.460938 26.1875 -14.703125 C 22.957031 -11.679688 20.171875 -8.765625 17.828125 -5.953125 C 17.203125 -5.210938 15.734375 -3.332031 13.421875 -0.3125 C 13.160156 0.0390625 12.742188 0.21875 12.171875 0.21875 C 11.597656 0.21875 11 0.109375 10.375 -0.109375 C 9.757812 -0.335938 9.453125 -0.628906 9.453125 -0.984375 C 9.453125 -1.160156 10.851562 -3.632812 13.65625 -8.40625 C 16.46875 -13.1875 17.875 -15.789062 17.875 -16.21875 C 17.875 -16.65625 17.613281 -16.875 17.09375 -16.875 C 16.570312 -16.875 15.5 -16.09375 13.875 -14.53125 C 9.40625 -10.257812 5.945312 -6.015625 3.5 -1.796875 C 3.332031 -1.554688 3.019531 -1.171875 2.5625 -0.640625 C 2.101562 -0.109375 1.796875 0.15625 1.640625 0.15625 Z M 1.640625 0.15625 "/></g></g></g><g fill="#231f20" fill-opacity="1"><g transform="translate(241.233111, 200.68181)"><g><path d="M 19.859375 -19.8125 C 19.859375 -18.644531 19.382812 -17.617188 18.4375 -16.734375 C 17.5 -15.847656 16.429688 -15.40625 15.234375 -15.40625 C 14.835938 -15.40625 14.578125 -15.5 14.453125 -15.6875 C 14.335938 -15.875 14.28125 -16.117188 14.28125 -16.421875 C 14.28125 -16.722656 14.3125 -17.015625 14.375 -17.296875 C 13.738281 -17.078125 13.03125 -16.75 12.25 -16.3125 C 11.476562 -15.875 10.523438 -15.222656 9.390625 -14.359375 C 8.265625 -13.492188 7.703125 -12.847656 7.703125 -12.421875 C 7.703125 -12.273438 7.910156 -12.203125 8.328125 -12.203125 C 8.742188 -12.203125 9.382812 -12.347656 10.25 -12.640625 C 11.113281 -12.929688 11.71875 -13.078125 12.0625 -13.078125 C 12.40625 -13.078125 12.628906 -13.0625 12.734375 -13.03125 C 12.960938 -12.90625 13.207031 -12.632812 13.46875 -12.21875 C 13.738281 -11.800781 13.875 -11.472656 13.875 -11.234375 C 13.875 -11.003906 13.644531 -10.691406 13.1875 -10.296875 C 12.726562 -9.910156 12.207031 -9.613281 11.625 -9.40625 C 11.039062 -9.207031 10.648438 -9.054688 10.453125 -8.953125 C 6.734375 -6.867188 4.875 -5.4375 4.875 -4.65625 C 4.875 -3.28125 6.046875 -2.59375 8.390625 -2.59375 C 9.890625 -2.59375 11.398438 -3.070312 12.921875 -4.03125 C 14.210938 -4.84375 15.375 -5.664062 16.40625 -6.5 C 17.4375 -7.34375 18.085938 -7.859375 18.359375 -8.046875 C 18.640625 -8.242188 18.847656 -8.34375 18.984375 -8.34375 C 19.441406 -8.34375 19.671875 -7.828125 19.671875 -6.796875 C 19.671875 -5.773438 19.609375 -5.101562 19.484375 -4.78125 C 19.367188 -4.457031 19.019531 -4.054688 18.4375 -3.578125 C 14.65625 -0.503906 11.078125 1.03125 7.703125 1.03125 C 5.898438 1.03125 4.460938 0.785156 3.390625 0.296875 C 1.410156 -0.609375 0.421875 -1.988281 0.421875 -3.84375 C 0.421875 -6.28125 2.109375 -8.125 5.484375 -9.375 C 4.804688 -9.675781 4.367188 -10.0625 4.171875 -10.53125 C 3.984375 -11 3.890625 -11.75 3.890625 -12.78125 C 3.890625 -13.8125 4.367188 -14.90625 5.328125 -16.0625 C 6.296875 -17.21875 7.476562 -18.164062 8.875 -18.90625 C 11.976562 -20.582031 14.75 -21.421875 17.1875 -21.421875 C 17.769531 -21.421875 18.359375 -21.28125 18.953125 -21 C 19.554688 -20.71875 19.859375 -20.320312 19.859375 -19.8125 Z M 19.859375 -19.8125 "/></g></g></g><g fill="#231f20" fill-opacity="1"><g transform="translate(258.447522, 200.68181)"><g/></g></g><g fill="#231f20" fill-opacity="1"><g transform="translate(269.703111, 200.68181)"><g><path d="M 27.03125 -38.390625 L 28.28125 -38.453125 C 28.738281 -38.453125 28.96875 -38.273438 28.96875 -37.921875 C 28.96875 -37.816406 28.953125 -37.738281 28.921875 -37.6875 C 20.484375 -25.269531 12.597656 -13.101562 5.265625 -1.1875 C 4.878906 -0.550781 4.535156 -0.191406 4.234375 -0.109375 C 4.210938 -0.109375 4.125 -0.0703125 3.96875 0 C 3.082031 0.332031 2.460938 0.5 2.109375 0.5 C 1.765625 0.5 1.570312 0.507812 1.53125 0.53125 C 1.375 0.707031 1.1875 0.796875 0.96875 0.796875 C 0.75 0.796875 0.601562 0.789062 0.53125 0.78125 C 0.457031 0.769531 0.253906 0.695312 -0.078125 0.5625 C -0.410156 0.4375 -0.578125 0.335938 -0.578125 0.265625 C -0.578125 -0.597656 -0.546875 -1.117188 -0.484375 -1.296875 C -0.109375 -2.546875 1.929688 -6.078125 5.640625 -11.890625 C 9.347656 -17.710938 13.117188 -23.390625 16.953125 -28.921875 C 20.796875 -34.460938 23.125 -37.550781 23.9375 -38.1875 C 24.1875 -38.382812 24.515625 -38.484375 24.921875 -38.484375 Z M 27.03125 -38.390625 "/></g></g></g><g fill="#231f20" fill-opacity="1"><g transform="translate(284.90476, 200.68181)"><g><path d="M 15.46875 -4.078125 C 15.46875 -3.296875 15.992188 -2.90625 17.046875 -2.90625 C 17.617188 -2.90625 18.332031 -3.1875 19.1875 -3.75 C 20.039062 -4.320312 20.8125 -4.941406 21.5 -5.609375 C 23.332031 -7.429688 24.375 -8.34375 24.625 -8.34375 C 25.082031 -8.34375 25.3125 -7.679688 25.3125 -6.359375 C 25.3125 -5.035156 24.898438 -4.125 24.078125 -3.625 C 21.546875 -1.351562 19.59375 0.03125 18.21875 0.53125 C 17.4375 0.789062 16.578125 0.910156 15.640625 0.890625 C 14.710938 0.878906 13.789062 0.476562 12.875 -0.3125 C 11.957031 -1.113281 11.5 -2.082031 11.5 -3.21875 C 11.5 -4.351562 11.796875 -5.644531 12.390625 -7.09375 C 12.992188 -8.539062 13.609375 -9.78125 14.234375 -10.8125 C 14.859375 -11.84375 15.628906 -13.039062 16.546875 -14.40625 C 17.460938 -15.78125 17.945312 -16.632812 18 -16.96875 L 17.953125 -17.03125 C 17.367188 -16.976562 15.925781 -15.828125 13.625 -13.578125 C 11.320312 -11.335938 9.421875 -9.390625 7.921875 -7.734375 C 6.421875 -6.078125 4.628906 -3.859375 2.546875 -1.078125 C 1.960938 -0.328125 1.484375 0.046875 1.109375 0.046875 C 0.742188 0.046875 0.25 -0.0664062 -0.375 -0.296875 C -1.007812 -0.535156 -1.394531 -0.707031 -1.53125 -0.8125 C -1.675781 -0.925781 -1.75 -1.085938 -1.75 -1.296875 C -1.75 -1.503906 -1.6875 -1.765625 -1.5625 -2.078125 C -1.4375 -2.390625 -1.316406 -2.644531 -1.203125 -2.84375 C -1.085938 -3.050781 -0.894531 -3.363281 -0.625 -3.78125 C -0.363281 -4.207031 0.15625 -5.101562 0.9375 -6.46875 C 1.726562 -7.84375 2.929688 -9.890625 4.546875 -12.609375 C 6.171875 -15.328125 7.144531 -16.96875 7.46875 -17.53125 C 8.132812 -18.695312 8.679688 -19.546875 9.109375 -20.078125 C 9.898438 -21.078125 11.242188 -21.578125 13.140625 -21.578125 C 13.554688 -21.578125 13.765625 -21.3125 13.765625 -20.78125 C 13.765625 -19.957031 13 -18.394531 11.46875 -16.09375 L 10.359375 -14.4375 C 13.410156 -17.820312 15.988281 -19.96875 18.09375 -20.875 C 19.113281 -21.3125 20.03125 -21.53125 20.84375 -21.53125 C 21.664062 -21.53125 22.320312 -21.304688 22.8125 -20.859375 C 23.300781 -20.421875 23.546875 -19.929688 23.546875 -19.390625 C 23.546875 -18.859375 23.359375 -18.21875 22.984375 -17.46875 C 22.617188 -16.71875 22.242188 -16.046875 21.859375 -15.453125 C 21.484375 -14.859375 20.984375 -14.109375 20.359375 -13.203125 C 19.742188 -12.304688 19.410156 -11.816406 19.359375 -11.734375 C 19.304688 -11.660156 19.164062 -11.453125 18.9375 -11.109375 C 18.71875 -10.765625 18.554688 -10.507812 18.453125 -10.34375 C 18.347656 -10.1875 18.171875 -9.910156 17.921875 -9.515625 C 17.679688 -9.117188 17.484375 -8.785156 17.328125 -8.515625 C 17.179688 -8.253906 16.992188 -7.929688 16.765625 -7.546875 C 16.546875 -7.160156 16.367188 -6.828125 16.234375 -6.546875 C 16.109375 -6.265625 15.976562 -5.953125 15.84375 -5.609375 C 15.59375 -4.992188 15.46875 -4.484375 15.46875 -4.078125 Z M 15.46875 -4.078125 "/></g></g></g><g fill="#231f20" fill-opacity="1"><g transform="translate(306.091727, 200.68181)"><g><path d="M 45.390625 -38.34375 L 46.34375 -38.078125 C 48.582031 -37.742188 49.703125 -37.070312 49.703125 -36.0625 C 49.703125 -35.78125 49.597656 -35.546875 49.390625 -35.359375 C 47.003906 -33.222656 43.832031 -30.914062 39.875 -28.4375 C 33.84375 -24.675781 26.992188 -21.039062 19.328125 -17.53125 C 21.835938 -16.101562 25.238281 -13.726562 29.53125 -10.40625 C 35.28125 -6.15625 38.816406 -4.03125 40.140625 -4.03125 C 40.597656 -4.03125 40.988281 -4.15625 41.3125 -4.40625 C 41.644531 -4.664062 41.832031 -4.796875 41.875 -4.796875 C 42.164062 -4.796875 42.3125 -4.65625 42.3125 -4.375 C 42.3125 -4.125 42.015625 -3.414062 41.421875 -2.25 C 40.835938 -1.082031 40.335938 -0.316406 39.921875 0.046875 C 39.503906 0.421875 38.84375 0.609375 37.9375 0.609375 C 37.039062 0.609375 35.84375 0.164062 34.34375 -0.71875 C 32.84375 -1.601562 31.203125 -2.707031 29.421875 -4.03125 C 27.648438 -5.363281 25.882812 -6.722656 24.125 -8.109375 C 19.65625 -11.546875 16.644531 -13.582031 15.09375 -14.21875 C 9.65625 -5.632812 6.859375 -1.191406 6.703125 -0.890625 C 6.554688 -0.597656 6.363281 -0.359375 6.125 -0.171875 C 5.882812 0.015625 5.734375 0.109375 5.671875 0.109375 L 4.53125 0.265625 L 3.59375 0.21875 C 3.351562 0.21875 3.175781 0.253906 3.0625 0.328125 C 2.957031 0.410156 2.84375 0.46875 2.71875 0.5 C 2.601562 0.539062 2.5 0.597656 2.40625 0.671875 C 2.320312 0.753906 2.1875 0.796875 2 0.796875 C 1.8125 0.796875 1.550781 0.648438 1.21875 0.359375 C 0.894531 0.0664062 0.734375 -0.179688 0.734375 -0.390625 C 0.734375 -0.609375 0.863281 -0.976562 1.125 -1.5 C 1.382812 -2.03125 4.640625 -6.953125 10.890625 -16.265625 L 10.375 -16.265625 C 9.195312 -16.265625 8.609375 -16.582031 8.609375 -17.21875 C 8.609375 -17.863281 8.898438 -18.507812 9.484375 -19.15625 C 10.078125 -19.800781 10.675781 -20.125 11.28125 -20.125 C 11.882812 -20.125 12.546875 -20.070312 13.265625 -19.96875 C 16.597656 -24.894531 19.164062 -28.757812 20.96875 -31.5625 C 18.925781 -29.632812 16.984375 -28.671875 15.140625 -28.671875 C 14.265625 -28.671875 13.566406 -28.972656 13.046875 -29.578125 C 12.535156 -30.191406 12.28125 -30.890625 12.28125 -31.671875 C 12.28125 -32.453125 12.476562 -33.085938 12.875 -33.578125 C 13.28125 -34.066406 13.664062 -34.410156 14.03125 -34.609375 C 14.40625 -34.804688 14.660156 -34.90625 14.796875 -34.90625 C 14.941406 -34.90625 15.015625 -34.832031 15.015625 -34.6875 L 14.796875 -34.0625 C 14.796875 -33.8125 15.175781 -33.6875 15.9375 -33.6875 C 16.695312 -33.6875 17.753906 -34.101562 19.109375 -34.9375 C 20.472656 -35.78125 21.804688 -36.617188 23.109375 -37.453125 C 24.421875 -38.296875 25.398438 -38.71875 26.046875 -38.71875 C 26.703125 -38.71875 27.128906 -38.640625 27.328125 -38.484375 C 27.535156 -38.335938 27.722656 -38.242188 27.890625 -38.203125 C 28.066406 -38.160156 28.207031 -38.09375 28.3125 -38 C 28.414062 -37.914062 28.5 -37.804688 28.5625 -37.671875 C 28.632812 -37.535156 28.769531 -37.390625 28.96875 -37.234375 C 29.164062 -37.078125 29.265625 -36.863281 29.265625 -36.59375 C 29.265625 -36.332031 29.191406 -36.085938 29.046875 -35.859375 C 26.804688 -32.460938 24.050781 -28.1875 20.78125 -23.03125 C 25.164062 -25.3125 30.171875 -28.226562 35.796875 -31.78125 C 41.429688 -35.34375 44.476562 -37.441406 44.9375 -38.078125 C 45.039062 -38.253906 45.191406 -38.34375 45.390625 -38.34375 Z M 45.390625 -38.34375 "/></g></g></g></svg>