<svg width="current" height="current" viewBox="0 0 24 24" fill="currentColor" xmlns="http://www.w3.org/2000/svg">
<path d="M13.0012 3.69058V3.71058C13.0012 4.38058 13.4512 4.94058 14.0812 5.14058C16.9312 6.03058 19.0012 8.68058 19.0012 11.8206C19.0012 12.3406 18.9412 12.8306 18.8312 13.3106C18.6912 13.9506 18.9512 14.6106 19.5212 14.9506L19.5312 14.9606C20.3912 15.4606 21.5112 15.0106 21.7412 14.0506C21.9112 13.3306 22.0012 12.5806 22.0012 11.8206C22.0012 7.32058 19.0212 3.50058 14.9212 2.25058C13.9712 1.96058 13.0012 2.69058 13.0012 3.69058ZM10.9412 18.7406C7.9512 18.3106 5.5212 15.8806 5.0812 12.9006C4.5412 9.30058 6.7412 6.13058 9.9112 5.14058C10.5512 4.95058 11.0012 4.38058 11.0012 3.71058V3.69058C11.0012 2.69058 10.0312 1.96058 9.0712 2.25058C4.56119 3.63058 1.4112 8.11058 2.0912 13.2106C2.6812 17.5906 6.2212 21.1306 10.6012 21.7206C13.7412 22.1406 16.6412 21.1106 18.7312 19.1906C19.4712 18.5106 19.3412 17.3006 18.4712 16.8006C17.8912 16.4606 17.1712 16.5706 16.6712 17.0206C15.2012 18.3606 13.1612 19.0706 10.9412 18.7406Z" fill="#007AFF" style="fill:#007AFF;fill:color(display-p3 0.0000 0.4784 1.0000);fill-opacity:1;"/>
</svg>
