<svg width="current" height="current" viewBox="0 0 24 24" fill="currentColor" xmlns="http://www.w3.org/2000/svg">
<path d="M10.15 5C9.21026 4.9848 8.29369 5.29215 7.55308 5.87081C6.81247 6.44947 6.29256 7.26448 6.08001 8.18C5.95797 8.76265 5.96752 9.36518 6.10796 9.94367C6.2484 10.5222 6.51618 11.062 6.89178 11.5238C7.26738 11.9857 7.74133 12.3578 8.27905 12.6132C8.81678 12.8686 9.40472 13.0007 10 13V19H12V7H14V19H16V7H18V5H10.15ZM8.00001 9C8.00001 8.46957 8.21072 7.96086 8.5858 7.58579C8.96087 7.21072 9.46958 7 10 7V11C9.46958 11 8.96087 10.7893 8.5858 10.4142C8.21072 10.0391 8.00001 9.53044 8.00001 9Z" fill="black"/>
</svg>
