<svg width="15" height="15" viewBox="0 0 15 15" fill="none" xmlns="http://www.w3.org/2000/svg">
<path fill-rule="evenodd" clip-rule="evenodd" d="M6.34007 1.1519C5.65886 1.1519 4.98432 1.28608 4.35497 1.54677C3.72561 1.80745 3.15376 2.18955 2.67207 2.67124C2.19039 3.15293 1.80829 3.72477 1.5476 4.35413C1.28691 4.98349 1.15274 5.65803 1.15274 6.33924C1.15274 7.02045 1.28691 7.69499 1.5476 8.32434C1.80829 8.9537 2.19039 9.52555 2.67207 10.0072C3.15376 10.4889 3.72561 10.871 4.35497 11.1317C4.98432 11.3924 5.65886 11.5266 6.34007 11.5266C7.71584 11.5266 9.03526 10.98 10.0081 10.0072C10.9809 9.03442 11.5274 7.715 11.5274 6.33924C11.5274 4.96347 10.9809 3.64405 10.0081 2.67124C9.03526 1.69843 7.71584 1.1519 6.34007 1.1519ZM3.83343e-08 6.33924C0.000134464 5.32106 0.245488 4.31788 0.715306 3.41458C1.18512 2.51127 1.86558 1.73441 2.69913 1.14969C3.53268 0.564977 4.49479 0.189616 5.50408 0.0553597C6.51337 -0.0788965 7.54014 0.0319017 8.49756 0.378382C9.45497 0.724862 10.3149 1.29683 11.0045 2.04591C11.6941 2.79499 12.1932 3.69913 12.4595 4.68187C12.7258 5.66461 12.7515 6.69703 12.5344 7.6918C12.3173 8.68657 11.8638 9.61443 11.2123 10.3969L14.8166 14.0011C14.8732 14.0539 14.9186 14.1175 14.9501 14.1882C14.9816 14.2589 14.9985 14.3352 14.9999 14.4126C15.0013 14.49 14.987 14.5669 14.9581 14.6387C14.9291 14.7104 14.8859 14.7756 14.8312 14.8304C14.7765 14.8851 14.7113 14.9282 14.6395 14.9572C14.5677 14.9862 14.4909 15.0004 14.4135 14.9991C14.3361 14.9977 14.2598 14.9808 14.189 14.9493C14.1183 14.9178 14.0547 14.8723 14.002 14.8157L10.3977 11.2115C9.47185 11.9827 8.3454 12.474 7.15031 12.628C5.95523 12.782 4.74101 12.5922 3.64989 12.081C2.55878 11.5697 1.63596 10.7581 0.989537 9.74115C0.343117 8.72425 -0.000132442 7.5442 3.83343e-08 6.33924Z" fill="#838383"/>
</svg>
