<svg width="22" height="20" viewBox="0 0 22 20" fill="none" xmlns="http://www.w3.org/2000/svg">
<path d="M3.14286 0C2.30932 0 1.50992 0.383116 0.920522 1.06507C0.331122 1.74702 0 2.67194 0 3.63636V4.54545H22V3.63636C22 2.67194 21.6689 1.74702 21.0795 1.06507C20.4901 0.383116 19.6907 0 18.8571 0H3.14286Z" fill="#A15C38"/>
<path fill-rule="evenodd" clip-rule="evenodd" d="M22 7.27271H0V16.3636C0 17.328 0.331122 18.253 0.920522 18.9349C1.50992 19.6169 2.30932 20 3.14286 20H18.8571C19.6907 20 20.4901 19.6169 21.0795 18.9349C21.6689 18.253 22 17.328 22 16.3636V7.27271ZM3.14286 11.8182C3.14286 11.5771 3.22564 11.3458 3.37299 11.1753C3.52034 11.0048 3.72019 10.9091 3.92857 10.9091H10.2143C10.4227 10.9091 10.6225 11.0048 10.7699 11.1753C10.9172 11.3458 11 11.5771 11 11.8182C11 12.0593 10.9172 12.2905 10.7699 12.461C10.6225 12.6315 10.4227 12.7273 10.2143 12.7273H3.92857C3.72019 12.7273 3.52034 12.6315 3.37299 12.461C3.22564 12.2905 3.14286 12.0593 3.14286 11.8182ZM3.92857 14.5454C3.72019 14.5454 3.52034 14.6412 3.37299 14.8117C3.22564 14.9822 3.14286 15.2134 3.14286 15.4545C3.14286 15.6956 3.22564 15.9269 3.37299 16.0973C3.52034 16.2678 3.72019 16.3636 3.92857 16.3636H7.07143C7.27981 16.3636 7.47966 16.2678 7.62701 16.0973C7.77436 15.9269 7.85714 15.6956 7.85714 15.4545C7.85714 15.2134 7.77436 14.9822 7.62701 14.8117C7.47966 14.6412 7.27981 14.5454 7.07143 14.5454H3.92857Z" fill="#A15C38"/>
</svg>
