<?xml version="1.0" encoding="iso-8859-1"?>
<!-- Generator: Adobe Illustrator 16.0.0, SVG Export Plug-In . SVG Version: 6.00 Build 0)  -->
<!DOCTYPE svg PUBLIC "-//W3C//DTD SVG 1.1//EN" "http://www.w3.org/Graphics/SVG/1.1/DTD/svg11.dtd">
<svg version="1.1" id="Capa_1" xmlns="http://www.w3.org/2000/svg" xmlns:xlink="http://www.w3.org/1999/xlink" x="0px" y="0px"
	 width="478.125px" height="478.125px" viewBox="0 0 478.125 478.125" style="enable-background:new 0 0 478.125 478.125;"
	 xml:space="preserve">
<g>
	<path fill="currentColor" d="M239.062,0C107.1,0,0,107.1,0,239.062c0,131.963,107.1,239.062,239.062,239.062c131.963,0,239.062-107.1,239.062-239.062
		C478.125,107.1,371.025,0,239.062,0z M153,153c11.475,0,19.125,7.65,19.125,19.125S164.475,191.25,153,191.25
		s-19.125-7.65-19.125-19.125S141.525,153,153,153z M344.25,325.125c0,0-38.25,38.25-105.188,38.25s-105.188-38.25-105.188-38.25
		V306c0,0,38.25,38.25,105.188,38.25S344.25,306,344.25,306V325.125z M325.125,191.25c-11.475,0-19.125-7.65-19.125-19.125
		S313.65,153,325.125,153s19.125,7.65,19.125,19.125S336.6,191.25,325.125,191.25z"/>
</g>
<g>
</g>
<g>
</g>
<g>
</g>
<g>
</g>
<g>
</g>
<g>
</g>
<g>
</g>
<g>
</g>
<g>
</g>
<g>
</g>
<g>
</g>
<g>
</g>
<g>
</g>
<g>
</g>
<g>
</g>
</svg>
